<?xml version="1.0" encoding="UTF-8" standalone="no"?>
<!DOCTYPE svg PUBLIC "-//W3C//DTD SVG 1.1//EN" "http://www.w3.org/Graphics/SVG/1.1/DTD/svg11.dtd">
<svg width="100%" height="100%" viewBox="0 0 351 247" version="1.1" xmlns="http://www.w3.org/2000/svg" xmlns:xlink="http://www.w3.org/1999/xlink" xml:space="preserve" xmlns:serif="http://www.serif.com/" style="fill-rule:evenodd;clip-rule:evenodd;stroke-miterlimit:10;">
    <g transform="matrix(1,0,0,1,-762.626,-494.926)">
        <g transform="matrix(1,0,0,1,827.024,624.058)">
            <path d="M0,26.793L0,-45.382C0,-56.227 -8.791,-65.018 -19.636,-65.018C-30.481,-65.018 -39.273,-56.227 -39.273,-45.382L-39.273,-39.357L-39.166,58.153L-39.166,72.175C-39.166,83.02 -30.374,91.811 -19.53,91.811L-19.529,91.811C-8.685,91.811 0.107,83.02 0.107,72.175C0.107,72.175 0.065,26.855 0,26.793Z" style="fill:rgb(0,4,28);fill-rule:nonzero;stroke:black;stroke-width:5px;"/>
        </g>
        <g transform="matrix(1,0,0,1,879.321,670.202)">
            <path d="M0,-130.515C0,-141.36 -8.791,-150.151 -19.636,-150.151C-30.481,-150.151 -39.273,-141.36 -39.273,-130.515L-39.273,-85.379C-39.273,-85.372 -39.269,-85.366 -39.269,-85.359L-39.269,-0C-39.269,10.845 -30.477,19.636 -19.633,19.636C-8.788,19.636 0.004,10.845 0.004,-0L0.004,-93.304L0,-93.304L0,-130.515Z" style="fill:rgb(0,4,28);fill-rule:nonzero;stroke:black;stroke-width:5px;"/>
        </g>
        <g transform="matrix(1,0,0,1,983.594,670.02)">
            <path d="M0,-130.212C0,-141.057 -8.791,-149.848 -19.636,-149.848C-30.481,-149.848 -39.273,-141.057 -39.273,-130.212L-39.273,-16.256L-39.263,-16.256L-39.263,-0C-39.263,10.845 -30.472,19.636 -19.627,19.636C-8.782,19.636 0.009,10.845 0.009,-0L0.009,-88.913L0,-88.913L0,-130.212Z" style="fill:rgb(0,4,28);fill-rule:nonzero;stroke:black;stroke-width:5px;"/>
        </g>
        <g transform="matrix(1,0,0,1,911.879,715.748)">
            <path d="M0,-169.666C-10.845,-169.666 -19.636,-160.875 -19.636,-150.03L-19.636,-134.641L-19.748,-64.772L-19.748,-19.636C-19.748,-8.791 -10.957,0 -0.112,0C10.733,0 19.525,-8.791 19.525,-19.636L19.525,-50.009L19.636,-130.923L19.636,-150.03C19.636,-160.874 10.845,-169.666 0,-169.666Z" style="fill:rgb(0,4,28);fill-rule:nonzero;stroke:black;stroke-width:5px;"/>
        </g>
        <g transform="matrix(1,0,0,1,807.388,520.05)">
            <path d="M0,26.032C7.188,26.032 13.016,20.205 13.016,13.016C13.016,5.828 7.188,0 0,0C-7.188,0 -13.016,5.828 -13.016,13.016C-13.016,20.205 -7.188,26.032 0,26.032Z" style="fill:rgb(0,4,28);fill-rule:nonzero;stroke:black;stroke-width:5px;"/>
        </g>
        <g transform="matrix(-1,0,0,1,1068.75,715.565)">
            <circle cx="0" cy="-13.016" r="13.016" style="fill:rgb(0,4,28);stroke:black;stroke-width:5px;"/>
        </g>
        <g transform="matrix(1,0,0,1,1035.79,676.945)">
            <path d="M0,-26.086L0,-111.044C0,-121.889 -8.792,-130.681 -19.636,-130.681C-30.481,-130.681 -39.272,-121.889 -39.272,-111.045L-39.272,-3.658L-39.261,-3.658L-39.261,19.107C-39.261,29.951 -30.47,38.743 -19.625,38.743C-8.78,38.743 0.011,29.951 0.011,19.107L0.011,-26.03C0.011,-26.05 0.003,-26.067 0,-26.086Z" style="fill:rgb(0,4,28);fill-rule:nonzero;stroke:black;stroke-width:5px;"/>
        </g>
        <g transform="matrix(1,0,0,1,1088.39,544.251)">
            <path d="M0,108.306L0,112.688C0,123.533 -8.791,132.324 -19.636,132.324C-30.481,132.324 -39.273,123.533 -39.273,112.688L-39.273,40.939C-39.308,40.885 -39.334,-4.382 -39.334,-4.382C-39.334,-15.227 -30.543,-24.018 -19.698,-24.018C-8.853,-24.018 -0.062,-15.227 -0.062,-4.382L-0.062,35.359L0,108.306Z" style="fill:rgb(0,4,28);fill-rule:nonzero;stroke:black;stroke-width:5px;"/>
        </g>
    </g>
</svg>
