<svg viewBox="0 0 24 24" xmlns="http://www.w3.org/2000/svg"><path d="M19.33 9.93a.5.5 0 0 0-.16.69 5.44 5.44 0 0 1 0 5.77.5.5 0 0 0 .85.53 6.44 6.44 0 0 0 0-6.82.5.5 0 0 0-.69-.17ZM22.42 8.22a.5.5 0 1 0-.83.55 8.58 8.58 0 0 1 0 9.45.5.5 0 1 0 .83.55 9.58 9.58 0 0 0 0-10.55ZM16.27 10.78a.5.5 0 0 0-.31.41 6.52 6.52 0 0 1-.42 1.73.51.51 0 0 1-.65.28.5.5 0 0 1-.28-.65 5.51 5.51 0 0 0-3.06-7.15h-.06A5.45 5.45 0 0 0 5 7.42a.5.5 0 0 0 .29.77 4.91 4.91 0 0 1 2.25 1.27.5.5 0 0 1 0 .71.51.51 0 0 1-.71 0 4 4 0 0 0-2.15-1.1A3.82 3.82 0 0 0 4 9a4 4 0 0 0 0 8h10.5a3.49 3.49 0 0 0 2.28-6.14.5.5 0 0 0-.51-.08Z" fill="#599d14" class="fill-303c42"></path></svg>