<svg xmlns="http://www.w3.org/2000/svg" viewBox="0 0 64 64" xml:space="preserve" enable-background="new 0 0 64 64"><path d="M49.2 30.8 33.3 14.9 31 12.6c-1.6-1.6-4.1.9-2.5 2.5L44.4 31l1 1-14.7 14.7-2.3 2.3c-1.6 1.6.9 4.1 2.5 2.5l15.9-15.9 2.3-2.3c.8-.8.8-1.8.1-2.5z" fill="#ecaa00" class="fill-000000"></path><path d="M35.7 33.3c.7-.7.7-1.8 0-2.5L19.8 14.9l-2.3-2.3c-1.6-1.6-4.1.9-2.5 2.4l15.9 15.9 1 1-14.7 14.7-2.3 2.3c-1.6 1.6.9 4.1 2.5 2.5l15.9-15.9c.8-.7 1.6-1.5 2.4-2.2z" fill="#ecaa00" class="fill-000000"></path></svg>