<svg viewBox="0 0 141.732 141.732" xml:space="preserve" xmlns="http://www.w3.org/2000/svg"><path d="M115.823 70.659c-11.776 11.775-30.416 12.498-43.035 2.169l-4.567-4.568c-10.331-12.619-9.606-31.258 2.17-43.037 12.548-12.546 32.888-12.544 45.432.004 12.545 12.548 12.547 32.885 0 45.432m11.112 11.606c18.819-18.818 18.819-49.332 0-68.151-18.818-18.819-49.332-18.819-68.151 0-16.884 16.884-18.61 43.174-5.199 61.992L2.353 127.339a8.035 8.035 0 0 0 0 11.36c3.134 3.137 8.22 3.136 11.358 0l51.231-51.234c18.819 13.411 45.11 11.684 61.993-5.2" fill="#585858" class="fill-000000"></path></svg>