<?xml version="1.0" encoding="UTF-8" standalone="no"?><!DOCTYPE svg PUBLIC "-//W3C//DTD SVG 1.1//EN" "http://www.w3.org/Graphics/SVG/1.1/DTD/svg11.dtd"><svg width="100%" height="100%" viewBox="0 0 667 496" version="1.1" xmlns="http://www.w3.org/2000/svg" xmlns:xlink="http://www.w3.org/1999/xlink" xml:space="preserve" xmlns:serif="http://www.serif.com/" style="fill-rule:evenodd;clip-rule:evenodd;stroke-linejoin:round;stroke-miterlimit:2;"><g><path d="M309.5,0.398c11.24,-1.287 21.906,0.547 32,5.5c2.628,1.626 4.961,3.626 7,6c5.175,0.467 10.342,0.3 15.5,-0.5c8.481,-0.06 16.148,2.274 23,7c3.202,-2.025 6.368,-4.192 9.5,-6.5c7.096,-0.826 14.096,-0.326 21,1.5c4.949,-2.137 9.949,-4.304 15,-6.5c18.553,-2.727 31.553,4.44 39,21.5c13.423,1.843 19.423,9.51 18,23c10.294,3.243 14.46,10.243 12.5,21c-0.892,3.452 -2.558,6.452 -5,9c-0.831,6.36 -0.664,12.693 0.5,19c13.028,2.283 26.028,4.783 39,7.5c5.098,1.433 8.598,4.6 10.5,9.5c0.5,10.328 0.666,20.661 0.5,31c11.338,-0.167 22.672,0 34,0.5c25.183,4.838 50.183,10.505 75,17c3.167,1.833 5.667,4.333 7.5,7.5c1.275,12.597 1.942,25.264 2,38c0.167,34.167 0.333,68.333 0.5,102.5c0.157,35.225 -0.343,70.392 -1.5,105.5c-3.151,5.817 -7.984,9.317 -14.5,10.5c-81.84,21.376 -163.506,43.209 -245,65.5c-130.443,-10.207 -260.776,-21.707 -391,-34.5c-7.326,-2.117 -11.826,-6.951 -13.5,-14.5c-0.39,-98.007 -0.723,-196.007 -1,-294c2.377,-7.045 7.21,-11.212 14.5,-12.5c72.283,-3.875 144.616,-5.375 217,-4.5c0.167,-18.003 0,-36.003 -0.5,-54c-9.156,-7.455 -12.823,-17.122 -11,-29c2.247,-5.211 6.08,-8.711 11.5,-10.5c5.991,-0.499 11.991,-0.666 18,-0.5c-0.304,-9.55 4.029,-16.05 13,-19.5c6,-0.333 12,-0.667 18,-1c7.318,-10.311 16.984,-17.144 29,-20.5Z" style="fill:#5fa445;"/><path d="M312.5,12.398c12.225,-1.543 21.891,2.624 29,12.5c10.325,-0.245 20.658,-0.245 31,0c0.348,2.509 -0.319,5.009 -2,7.5c0.5,0.333 1,0.667 1.5,1c7.437,-1.412 14.937,-2.412 22.5,-3c3.198,0.846 6.364,1.846 9.5,3c0.5,-0.167 1,-0.333 1.5,-0.5c-1.576,-2.951 -2.243,-6.117 -2,-9.5c4.053,0.513 8.053,1.346 12,2.5c7.702,1.484 14.369,-0.516 20,-6c7.438,-2.633 13.938,-1.133 19.5,4.5c2.845,4.698 5.011,9.698 6.5,15c4.593,1.289 9.26,2.289 14,3c-1.619,4.274 -4.286,7.608 -8,10c-1.333,2.667 -1.333,5.333 0,8c0.946,-0.487 1.946,-0.82 3,-1c6.434,1.65 12.767,3.483 19,5.5c-2.537,2.906 -4.704,6.073 -6.5,9.5c-0.833,12.656 -1.333,25.322 -1.5,38c17.76,2.182 35.427,5.016 53,8.5c0.989,13.087 1.323,26.254 1,39.5c4.289,0.988 8.622,1.821 13,2.5c11.333,0.333 22.667,0.667 34,1c24.09,4.151 47.923,9.317 71.5,15.5c1.38,78.663 1.713,157.329 1,236c-16.444,4.904 -32.944,9.737 -49.5,14.5c-66.81,16.119 -133.143,33.952 -199,53.5c-131.426,-10.878 -262.759,-22.711 -394,-35.5c-0.712,-97.768 -1.378,-195.602 -2,-293.5c78.62,-3.474 157.286,-4.808 236,-4c0.406,-27.365 -0.26,-54.698 -2,-82c-6.679,-2.341 -10.346,-7.007 -11,-14c13.353,0.191 26.687,-0.142 40,-1c0.655,-4.55 -1.179,-7.55 -5.5,-9c-1.868,-3.105 -3.035,-6.438 -3.5,-10c8.34,0.167 16.673,-0 25,-0.5c4.021,-11.191 11.688,-18.358 23,-21.5Z" style="fill:#090e05;"/><path d="M311.5,16.398c12.476,-2.466 21.81,1.701 28,12.5c9.652,-0.331 19.319,-0.831 29,-1.5c0.107,2.403 -0.893,4.237 -3,5.5c-9.636,1.597 -19.303,2.597 -29,3c-5.794,-8.382 -13.794,-11.715 -24,-10c-9.105,2.605 -15.105,8.438 -18,17.5c-6.976,1.165 -13.976,1.331 -21,0.5c-2.715,-0.875 -4.048,-2.708 -4,-5.5c7.675,-0.18 15.342,-0.513 23,-1c2.522,-10.519 8.856,-17.519 19,-21Z" style="fill:#5b9f41;"/><path d="M437.5,22.398c8.163,-1.336 13.997,1.664 17.5,9c1,3.333 2,6.667 3,10c3.591,1.82 7.424,2.82 11.5,3c0.203,1.891 -0.463,3.391 -2,4.5c-4.757,0.81 -9.424,0.477 -14,-1c-1.549,-3.689 -2.715,-7.523 -3.5,-11.5c-2.73,-6.553 -7.563,-8.719 -14.5,-6.5c-4.28,1.947 -7.613,4.947 -10,9c-4.413,0.151 -8.746,-0.516 -13,-2c-3.223,-2.586 -4.557,-5.752 -4,-9.5c5.215,1.807 10.548,2.64 16,2.5c4.691,-2.008 9.024,-4.508 13,-7.5Z" style="fill:#5a9d40;"/><path d="M233.5,307.398l-4,0c0.33,-20.507 -0.003,-40.84 -1,-61c-8.597,-17.811 -21.93,-22.644 -40,-14.5c-4.318,3.315 -7.485,7.481 -9.5,12.5c-0.5,21.664 -0.667,43.331 -0.5,65l-26,0c-0.021,-48.003 -0.355,-96.003 -1,-144l0,-11l98,0c0.3,-28.359 -0.033,-56.692 -1,-85l29,0l0,-21l20,0c0.692,-9.19 5.359,-15.356 14,-18.5c5.089,-0.826 10.089,-0.492 15,1c3.901,2.567 7.067,5.734 9.5,9.5c6.424,-1.359 12.924,-2.026 19.5,-2c-0.882,4.409 0.452,7.909 4,10.5c11.365,-0.26 22.699,-1.093 34,-2.5c0.894,89.996 1.227,179.996 1,270c-50.668,0.167 -101.334,0 -152,-0.5c-2,-0.333 -4,-0.667 -6,-1c8.264,-6.304 7.264,-8.804 -3,-7.5Z" style="fill:#5ea543;"/><path d="M436.5,32.398c3.102,-0.346 5.935,0.321 8.5,2c2.14,5.224 3.973,10.558 5.5,16c3.807,1.826 7.807,2.826 12,3l0,20c5.696,0.787 11.363,1.787 17,3c-0.417,11.515 -1.084,23.015 -2,34.5c0.333,1.167 0.667,2.333 1,3.5c17.645,3.092 35.312,6.092 53,9c-0.167,13.004 0,26.004 0.5,39c5.05,1.721 10.217,3.054 15.5,4c0.934,47.991 1.267,95.991 1,144c-49.882,4.58 -99.882,6.58 -150,6c-0.356,-90.004 -0.356,-180.004 0,-270c5.047,1.611 9.881,3.611 14.5,6c5.383,-1.073 7.549,-4.407 6.5,-10c2.319,0.667 4.653,0.834 7,0.5c2.863,-4.028 6.196,-7.528 10,-10.5Z" style="fill:#5ea443;"/><path d="M383.5,34.398l10,0l0,9c-10.053,0.472 -20.053,1.472 -30,3c-5.074,-1.476 -6.074,-4.309 -3,-8.5c7.797,-1.262 15.464,-2.429 23,-3.5Z" style="fill:#57993e;"/><path d="M396.5,34.398c7.094,1.798 13.594,4.798 19.5,9c1.167,4.167 -0.333,5.667 -4.5,4.5c-4.555,-2.11 -9.222,-3.944 -14,-5.5c-0.98,-2.586 -1.313,-5.253 -1,-8Z" style="fill:#589b3f;"/><path d="M265.5,57.398c-9,0.667 -18,1.333 -27,2c-0.543,-0.06 -0.876,-0.393 -1,-1c9.31,-0.998 18.643,-1.331 28,-1Z" style="fill:#2b4d1f;"/><path d="M265.5,57.398l8,0l0,8c-9.026,0.069 -18.026,0.236 -27,0.5c-3.461,-1.304 -6.128,-3.471 -8,-6.5c9,-0.667 18,-1.333 27,-2Z" style="fill:#5da343;"/><path d="M466.5,63.398c5.699,0.407 11.366,1.074 17,2c-0.281,2.463 -1.281,4.63 -3,6.5c-4.762,0.478 -9.429,-0.022 -14,-1.5l0,-7Z" style="fill:#589a3f;"/><path d="M277.5,57.398l0,12l-10,0c2.787,-0.977 5.787,-1.31 9,-1c-0.315,-3.871 0.018,-7.538 1,-11Z" style="fill:#1a2f13;"/><path d="M311.5,68.398c12.193,-1.959 20.693,2.708 25.5,14c0.5,18.664 0.667,37.33 0.5,56c-13.356,-0.215 -26.689,0.118 -40,1c-0.167,-18.003 0,-36.003 0.5,-54c2.146,-7.635 6.646,-13.302 13.5,-17Z" style="fill:#080e05;"/><path d="M313.5,71.398c10.261,-1.117 17.094,3.216 20.5,13c0.5,16.663 0.667,33.33 0.5,50c-11.014,-0.043 -22.014,0.291 -33,1c-0.167,-17.003 0,-34.003 0.5,-51c2.3,-5.794 6.133,-10.127 11.5,-13Z" style="fill:#5ea443;"/><path d="M441.5,79.398c4.317,0.82 6.817,3.487 7.5,8c0.5,16.663 0.667,33.33 0.5,50l-14,0c-0.167,-16.337 0,-32.67 0.5,-49c0.837,-3.657 2.67,-6.657 5.5,-9Z" style="fill:#0e1509;"/><path d="M442.5,83.398c1.29,0.558 2.123,1.558 2.5,3c0.5,15.663 0.667,31.33 0.5,47l-6,0c-0.167,-15.337 0,-30.67 0.5,-46c0.662,-1.484 1.496,-2.817 2.5,-4Z" style="fill:#5ea443;"/><path d="M237.5,154.398l-86,0l0,11c-0.983,-3.798 -1.317,-7.798 -1,-12c29.171,-0.331 58.171,0.002 87,1Z" style="fill:#3e6e2d;"/><path d="M79.5,154.398l33,0l0,8c-32.663,1 -65.33,2 -98,3l0,-8c21.838,-0.674 43.505,-1.674 65,-3Z" style="fill:#599d40;"/><rect x="116.5" y="154.398" width="31" height="8" style="fill:#5da443;"/><path d="M580.5,432.398l0,-62l-4,0c-5.527,-2.794 -10.36,-1.794 -14.5,3c-0.167,21.341 -0.667,42.674 -1.5,64c-1.882,0.593 -3.715,1.26 -5.5,2c-0.5,-21.664 -0.667,-43.331 -0.5,-65c-7.218,-4.24 -13.551,-3.074 -19,3.5c0.994,22.091 1.327,44.258 1,66.5l-3,0c-1.663,-18.144 -2.663,-36.477 -3,-55l0,-13c-3.458,-1.575 -7.124,-2.075 -11,-1.5c-3.14,1.069 -5.807,2.902 -8,5.5c0.99,23.288 1.323,46.621 1,70c-3.333,0.667 -6.667,1.333 -10,2l0,-71c-1.373,0.157 -2.707,-0.01 -4,-0.5c-0.899,-1.236 -2.066,-2.07 -3.5,-2.5c-2.77,0.848 -5.603,1.181 -8.5,1c0.278,1.846 -0.389,3.18 -2,4c-0.671,24.899 -1.338,49.732 -2,74.5c-3.05,0.679 -6.05,1.512 -9,2.5c-1,-24.658 -1.333,-49.324 -1,-74c-3.59,0.286 -6.757,-0.714 -9.5,-3c-3.458,0.786 -6.958,1.12 -10.5,1c0.256,2.412 -0.744,4.079 -3,5c-1,25.991 -1.333,51.991 -1,78c-2.177,0.086 -4.177,0.753 -6,2c-1,-25.991 -1.333,-51.991 -1,-78c-4.785,-0.676 -9.285,-2.009 -13.5,-4c-4.172,0.459 -8.338,0.959 -12.5,1.5c-1.107,3.608 -3.44,6.108 -7,7.5c-1,27.659 -1.333,55.325 -1,83c-4.357,-0.086 -8.69,-0.42 -13,-1l0,-84c-4.989,1.109 -8.656,-0.558 -11,-5c-9.983,-1.166 -19.983,-1.332 -30,-0.5c-1.289,1.802 -2.956,2.969 -5,3.5l-6,0c-0.331,21.84 0.003,43.506 1,65l0,17c-4.681,-0.169 -9.348,-0.502 -14,-1l0,-82c-4.366,0.653 -7.366,-1.014 -9,-5c-8.647,-1.165 -17.314,-1.332 -26,-0.5c-1.289,1.802 -2.956,2.969 -5,3.5l-4,0c-0.33,16.175 0.004,32.175 1,48l0,32c-4.381,0.128 -8.715,-0.205 -13,-1l0,-80c-4.258,0.205 -7.258,-1.628 -9,-5.5c-8.695,-0.494 -17.361,-0.827 -26,-1c-2.166,3.879 -5.499,5.379 -10,4.5c0.954,25.979 1.287,51.979 1,78c-4.369,0.033 -8.702,-0.3 -13,-1l0,-80c-3.997,0.832 -6.664,-0.668 -8,-4.5c-8,-0.667 -16,-0.667 -24,0c-1.567,2.741 -3.901,3.908 -7,3.5l0,77l-12,0l0,-76l-4,0c-2.422,-0.585 -4.089,-2.085 -5,-4.5c-8.333,-0.667 -16.667,-0.667 -25,0c-2.336,2.833 -5.336,4 -9,3.5l0,72c-35.695,-2.67 -71.362,-5.67 -107,-9c-0.207,-92.334 -0.54,-184.667 -1,-277c32.983,-1.397 65.983,-2.064 99,-2c0.167,60.668 0,121.334 -0.5,182c-4.295,5.107 -8.462,10.274 -12.5,15.5c0.405,0.945 1.072,1.612 2,2c99.439,4.881 198.939,8.047 298.5,9.5c24.891,-0.479 49.724,-1.979 74.5,-4.5c40.296,-4.882 80.629,-9.382 121,-13.5c0.149,-1.052 -0.017,-2.052 -0.5,-3c-3.667,-3.667 -7.333,-7.333 -11,-11c-0.408,-54.002 -0.908,-108.002 -1.5,-162c22.818,4.053 45.484,8.72 68,14c0.513,72.666 0.847,145.332 1,218c-23.993,6.332 -47.993,12.665 -72,19Z" style="fill:#5da443;"/><path d="M116.5,166.398l31,0c0.922,47.659 1.255,95.325 1,143l-7,0c0.157,1.373 -0.01,2.707 -0.5,4c-7.667,9.333 -15.333,18.667 -23,28c-0.741,-58.332 -1.241,-116.665 -1.5,-175Z" style="fill:#5da443;"/><path d="M556.5,166.398l23,0l0,11c-9.366,-0.221 -18.699,0.113 -28,1l0,-11c1.915,0.284 3.581,-0.049 5,-1Z" style="fill:#5ba041;"/><path d="M650.5,181.398c0.569,3.829 -0.098,7.163 -2,10c-21.578,-4.816 -43.245,-9.316 -65,-13.5c-0.956,-3.394 -1.289,-6.894 -1,-10.5c22.9,3.594 45.567,8.261 68,14Z" style="fill:#5b9f41;"/><path d="M580.5,297.398c0.329,13.51 -0.004,26.844 -1,40c-8.662,-8.766 -17.495,-17.432 -26.5,-26c-0.813,-43.33 -1.313,-86.664 -1.5,-130l28,0c0.937,38.655 1.27,77.322 1,116Z" style="fill:#5da343;"/><path d="M650.5,181.398c0.982,3.462 1.315,7.129 1,11c-1.291,0.237 -2.291,-0.096 -3,-1c1.902,-2.837 2.569,-6.171 2,-10Z" style="fill:#27451c;"/><path d="M33.5,225.398c7.989,-0.172 12.323,3.661 13,11.5c-0.502,7.026 -4.335,10.86 -11.5,11.5c-5.771,-1.106 -8.605,-4.606 -8.5,-10.5c0.152,-5.479 2.486,-9.646 7,-12.5Z" style="fill:#090f05;"/><path d="M81.5,225.398c10.939,0.765 15.106,6.431 12.5,17c-4.964,6.122 -10.63,7.122 -17,3c-4.331,-8.079 -2.831,-14.746 4.5,-20Z" style="fill:#0b1207;"/><path d="M33.5,229.398c7.595,-0.235 10.762,3.432 9.5,11c-3.519,4.253 -7.519,4.92 -12,2c-1.257,-4.883 -0.424,-9.216 2.5,-13Z" style="fill:#5ba041;"/><path d="M81.5,229.398c7.595,-0.235 10.762,3.432 9.5,11c-3.519,4.253 -7.519,4.92 -12,2c-1.257,-4.883 -0.424,-9.216 2.5,-13Z" style="fill:#5ba041;"/><path d="M196.5,231.398c13.376,-2.06 22.876,2.94 28.5,15c0.5,20.664 0.667,41.331 0.5,62c-14.312,0.891 -28.645,1.225 -43,1c-0.167,-21.669 0,-43.336 0.5,-65c3.101,-5.937 7.601,-10.27 13.5,-13Z" style="fill:#5ea543;"/><path d="M421.5,253.398l0,27c1.599,0.268 2.932,-0.066 4,-1c-0.167,-13.671 0,-27.337 0.5,-41c5.002,-8.165 9.335,-7.832 13,1c0.5,13.329 0.667,26.663 0.5,40c1.068,0.934 2.401,1.268 4,1c0.327,-9.182 -0.007,-18.182 -1,-27c-0.339,-5.43 0.161,-10.764 1.5,-16c4.555,-6.891 8.555,-6.558 12,1c0.499,5.657 0.666,11.324 0.5,17l0,25c1.599,0.268 2.932,-0.066 4,-1c-0.167,-13.671 0,-27.337 0.5,-41c5.002,-8.165 9.335,-7.832 13,1c0.5,14.663 0.667,29.33 0.5,44l-66,0c0.172,-12.014 -0.161,-24.014 -1,-36c-0.61,-5.67 1.056,-10.504 5,-14.5c4.598,-1.091 7.431,0.743 8.5,5.5c0.499,4.989 0.666,9.989 0.5,15Z" style="fill:#030602;"/><path d="M276.5,234.398c6.182,-0.781 10.682,1.553 13.5,7c0.5,12.996 0.667,25.996 0.5,39l8,0c0.313,-12.051 -0.021,-24.051 -1,-36c2.353,-7.544 7.353,-10.711 15,-9.5c2.5,1.167 4.333,3 5.5,5.5c0.5,13.329 0.667,26.663 0.5,40l8,0c-0.167,-12.338 0,-24.671 0.5,-37c3.317,-8.736 9.15,-10.903 17.5,-6.5c1.201,0.903 2.035,2.069 2.5,3.5c0.5,13.329 0.667,26.663 0.5,40l9,0c-0.167,-12.338 0,-24.671 0.5,-37c3.317,-8.736 9.15,-10.903 17.5,-6.5c1.201,0.903 2.035,2.069 2.5,3.5c0.5,14.663 0.667,29.33 0.5,44l-108,0c-0.167,-14.337 0,-28.671 0.5,-43c1.694,-2.858 3.861,-5.191 6.5,-7Z" style="fill:#0c1308;"/><path d="M414.5,235.398c2.11,0.953 3.277,2.619 3.5,5c0.5,13.329 0.667,26.663 0.5,40l-7,0c-0.167,-13.671 0,-27.337 0.5,-41c0.662,-1.484 1.496,-2.817 2.5,-4Z" style="fill:#5b9f41;"/><path d="M435.5,253.398l0,26l-6,0l0,-39c0.548,-1.894 1.548,-3.56 3,-5c1.299,0.59 2.132,1.59 2.5,3c0.499,4.989 0.666,9.989 0.5,15Z" style="fill:#5da443;"/><path d="M449.5,235.398c2.11,0.953 3.277,2.619 3.5,5c0.5,13.329 0.667,26.663 0.5,40l-7,0c-0.167,-13.671 0,-27.337 0.5,-41c0.662,-1.484 1.496,-2.817 2.5,-4Z" style="fill:#5a9e40;"/><path d="M470.5,252.398l0,27l-6,0l0,-39c0.548,-1.894 1.548,-3.56 3,-5c0.586,0.209 1.086,0.543 1.5,1c1.397,5.208 1.897,10.541 1.5,16Z" style="fill:#5ea443;"/><path d="M276.5,238.398c2.357,-0.163 4.69,0.003 7,0.5c1.167,0.5 2,1.333 2.5,2.5c0.5,12.996 0.667,25.996 0.5,39l-14,0c-0.167,-12.338 0,-24.671 0.5,-37c0.997,-1.823 2.164,-3.49 3.5,-5Z" style="fill:#5ba041;"/><path d="M305.5,238.398c3.787,-0.686 6.954,0.314 9.5,3c0.5,12.996 0.667,25.996 0.5,39l-14,0c-0.167,-12.671 0,-25.338 0.5,-38c1.376,-1.205 2.542,-2.538 3.5,-4Z" style="fill:#5b9f41;"/><path d="M334.5,238.398c3.185,-0.48 6.019,0.186 8.5,2c0.5,13.329 0.667,26.663 0.5,40l-13,0c-0.167,-12.671 0,-25.338 0.5,-38c0.69,-1.85 1.856,-3.184 3.5,-4Z" style="fill:#5ea543;"/><path d="M364.5,238.398c3.185,-0.48 6.019,0.186 8.5,2c0.5,13.329 0.667,26.663 0.5,40l-13,0c-0.167,-12.671 0,-25.338 0.5,-38c0.69,-1.85 1.856,-3.184 3.5,-4Z" style="fill:#5ea543;"/><path d="M513.5,237.398c3.142,0.299 5.309,1.966 6.5,5c0.167,12.68 0.667,25.346 1.5,38c0.535,-13.415 1.368,-26.748 2.5,-40c4.448,-4.297 7.448,-3.297 9,3c1,49.333 2,49.333 3,0c1.363,-5.776 4.363,-7.11 9,-4c1.564,14.568 2.397,29.235 2.5,44l-38,0c-0.167,-13.671 0,-27.337 0.5,-41c0.997,-1.823 2.164,-3.49 3.5,-5Z" style="fill:#050903;"/><path d="M514.5,241.398c1.466,0.847 2.3,2.18 2.5,4c0.5,11.662 0.667,23.329 0.5,35l-5,0c-0.167,-12.338 0,-24.671 0.5,-37c0.717,-0.544 1.217,-1.211 1.5,-2Z" style="fill:#518f3a;"/><path d="M527.5,241.398c1.29,0.558 2.123,1.558 2.5,3c0.5,11.995 0.667,23.995 0.5,36c-1.644,0.214 -3.144,-0.12 -4.5,-1c-0.667,-11.667 -0.667,-23.333 0,-35c0.513,-1.027 1.013,-2.027 1.5,-3Z" style="fill:#518f3a;"/><path d="M540.5,241.398c1.25,0.077 2.083,0.744 2.5,2c0.5,12.329 0.667,24.662 0.5,37l-4,0c-0.296,-13.049 0.037,-26.049 1,-39Z" style="fill:#5ca142;"/><path d="M618.5,253.398c3.333,-0.473 5.5,0.86 6.5,4c3,-5.333 6,-5.333 9,0c1.845,-4.295 4.512,-4.962 8,-2c1.449,9.895 1.949,19.895 1.5,30l-27,0c-0.166,-9.672 0,-19.339 0.5,-29c0.513,-1.027 1.013,-2.027 1.5,-3Z" style="fill:#050903;"/><path d="M628.5,257.398c1.324,3.607 1.991,7.607 2,12c-0.333,4 -0.667,8 -1,12c-0.998,-7.972 -1.331,-15.972 -1,-24Z" style="fill:#4d8837;"/><path d="M421.5,253.398c0.993,8.484 1.326,17.151 1,26l3,0c-1.068,0.934 -2.401,1.268 -4,1l0,-27Z" style="fill:#3c692b;"/><path d="M442.5,253.398c0.993,8.818 1.327,17.818 1,27c-1.599,0.268 -2.932,-0.066 -4,-1l3,0l0,-26Z" style="fill:#2d5020;"/><path d="M456.5,255.398c0.992,7.816 1.326,15.816 1,24l3,0c-1.068,0.934 -2.401,1.268 -4,1l0,-25Z" style="fill:#3b672a;"/><path d="M637.5,257.398c1.325,3.776 1.991,7.943 2,12.5c-0.333,4.167 -0.667,8.333 -1,12.5c-0.998,-8.307 -1.331,-16.64 -1,-25Z" style="fill:#4c8636;"/><path d="M228.5,246.398c0.997,20.16 1.33,40.493 1,61l4,0c-1.419,0.951 -3.085,1.284 -5,1l0,-62Z" style="fill:#14200f;"/><path d="M464.5,240.398l0,39l6,0l0,-27c0.994,9.152 1.327,18.485 1,28l-8,0c-0.329,-13.51 0.004,-26.844 1,-40Z" style="fill:#2b4c1f;"/><path d="M429.5,240.398l0,39l6,0l0,-26c0.993,8.818 1.327,17.818 1,27l-8,0c-0.329,-13.51 0.004,-26.844 1,-40Z" style="fill:#2a4b1e;"/><path d="M619.5,257.398c1.325,3.776 1.991,7.943 2,12.5c-0.333,4.167 -0.667,8.333 -1,12.5c-0.998,-8.307 -1.331,-16.64 -1,-25Z" style="fill:#41722f;"/><path d="M580.5,297.398c1.326,13.506 1.326,27.172 0,41c-0.607,-0.124 -0.94,-0.457 -1,-1c0.996,-13.156 1.329,-26.49 1,-40Z" style="fill:#172911;"/><path d="M218.5,332.398c-0.991,-6.479 -1.324,-13.146 -1,-20c5.676,-0.428 11.343,-0.595 17,-0.5c-5.548,6.709 -10.881,13.542 -16,20.5Z" style="fill:#5ba041;"/><path d="M145.5,313.398l68,0l0,25c-22.658,0.778 -45.325,1.111 -68,1l0,-26Z" style="fill:#5da443;"/><path d="M217.5,312.398c-0.324,6.854 0.009,13.521 1,20c-0.06,0.543 -0.393,0.876 -1,1c-1.319,-7.156 -1.319,-14.156 0,-21Z" style="fill:#2e5121;"/><path d="M547.5,313.398c1.052,-0.149 2.052,0.017 3,0.5c14,12.667 27.333,26 40,40c-55.355,7.373 -110.855,13.206 -166.5,17.5c-2.625,-0.081 -4.959,-0.748 -7,-2c-6.337,-16.179 -12.17,-32.512 -17.5,-49c49.594,-0.209 98.928,-2.543 148,-7Z" style="fill:#5ea443;"/><path d="M140.5,319.398c0.992,7.482 1.325,15.148 1,23c25.009,0.333 50.009,0 75,-1c4.755,-7.59 10.089,-14.757 16,-21.5c54.334,-0.05 108.668,0.45 163,1.5c6.208,16.626 12.208,33.292 18,50c-101.407,-0.149 -202.741,-2.983 -304,-8.5c-1,-0.333 -2,-0.667 -3,-1c11.222,-14.288 22.555,-28.455 34,-42.5Z" style="fill:#5ea443;"/><path d="M34.5,362.398c7.468,0.302 11.468,4.136 12,11.5c-0.437,7.104 -4.27,10.937 -11.5,11.5c-5.771,-1.106 -8.605,-4.606 -8.5,-10.5c0.053,-5.959 2.72,-10.126 8,-12.5Z" style="fill:#080e05;"/><path d="M82.5,362.398c10.322,1.316 14.155,6.982 11.5,17c-5.537,6.72 -11.537,7.387 -18,2c-3.437,-8.425 -1.27,-14.758 6.5,-19Z" style="fill:#0b1107;"/><path d="M33.5,366.398c7.595,-0.235 10.762,3.432 9.5,11c-3.519,4.253 -7.519,4.92 -12,2c-1.257,-4.883 -0.424,-9.216 2.5,-13Z" style="fill:#5ba041;"/><path d="M81.5,366.398c7.595,-0.235 10.762,3.432 9.5,11c-3.519,4.253 -7.519,4.92 -12,2c-1.158,-4.807 -0.324,-9.14 2.5,-13Z" style="fill:#5ca141;"/><path d="M567.5,372.398c3.102,-0.346 5.935,0.321 8.5,2c0.833,19.675 0.666,39.342 -0.5,59c-3.491,1.632 -7.158,2.632 -11,3c-0.167,-20.336 0,-40.669 0.5,-61c1.045,-0.873 1.878,-1.873 2.5,-3Z" style="fill:#5b9f41;"/><path d="M541.5,442.398c-0.667,-18 -1.333,-36 -2,-54c-0.165,-3.35 0.002,-6.683 0.5,-10c3.048,-3.51 6.381,-3.843 10,-1c0.5,20.997 0.667,41.997 0.5,63c-3.039,0.51 -6.039,1.177 -9,2Z" style="fill:#5ea443;"/><path d="M518.5,378.398c3.102,-0.346 5.935,0.321 8.5,2c0.5,21.997 0.667,43.997 0.5,66c-4.096,0.691 -8.096,1.691 -12,3c-0.167,-22.669 0,-45.336 0.5,-68c1.045,-0.873 1.878,-1.873 2.5,-3Z" style="fill:#5ca242;"/><path d="M126.5,455.398c-0.323,-23.408 0.011,-46.742 1,-70c2.437,-0.386 4.437,-1.553 6,-3.5c7.024,-0.831 14.024,-0.664 21,0.5c1.591,2.133 3.591,3.799 6,5c1,23.657 1.333,47.324 1,71c-11.696,-0.725 -23.362,-1.725 -35,-3Z" style="fill:#5ea543;"/><path d="M186.5,381.398c6.656,0.547 13.323,1.047 20,1.5c1.905,1.87 4.072,3.37 6.5,4.5c0.5,24.998 0.667,49.998 0.5,75c-11.049,0.036 -22.049,-0.63 -33,-2c-0.333,-25.009 0,-50.009 1,-75c2.286,-0.633 3.952,-1.966 5,-4Z" style="fill:#5da343;"/><path d="M498.5,407.398c0.317,15.744 -0.016,31.411 -1,47c-3.101,0.192 -6.101,0.858 -9,2c-0.682,-22.856 -1.348,-45.69 -2,-68.5c2.466,-5.599 6.299,-6.766 11.5,-3.5c0.5,7.659 0.666,15.326 0.5,23Z" style="fill:#5ea543;"/><path d="M239.5,385.398c7.674,-0.166 15.341,0 23,0.5c1.827,3.078 4.494,4.912 8,5.5l0,76c-12.692,-0.224 -25.359,-0.891 -38,-2l0,-76c3.357,0.284 5.691,-1.049 7,-4Z" style="fill:#5ea443;"/><path d="M468.5,403.398c0.321,19.743 -0.013,39.409 -1,59c-4.837,0.71 -9.504,2.043 -14,4c-1.166,-24.993 -1.333,-49.993 -0.5,-75c1.633,-2.648 3.967,-3.981 7,-4c2.881,0.528 5.715,1.194 8.5,2l0,14Z" style="fill:#5ea543;"/><path d="M161.5,383.398l4,0l0,14c-0.985,-4.134 -1.318,-8.468 -1,-13c-1.291,0.237 -2.291,-0.096 -3,-1Z" style="fill:#1b3014;"/><path d="M293.5,470.398c-0.709,-0.904 -1.709,-1.237 -3,-1c0.329,-14.51 -0.004,-28.843 -1,-43c-0.332,-11.02 0.001,-22.02 1,-33c2.424,-0.923 4.424,-2.423 6,-4.5c7.341,-0.222 14.674,0.111 22,1c1.704,2.547 4.037,4.047 7,4.5l0,78c-10.687,-0.384 -21.354,-1.051 -32,-2Z" style="fill:#5ea543;"/><path d="M426.5,390.398c1.373,-0.157 2.707,0.01 4,0.5c2.118,2.142 4.618,3.642 7.5,4.5c0.5,24.998 0.667,49.998 0.5,75c-8.85,2.046 -17.517,4.713 -26,8c-1.333,-26.667 -1.333,-53.333 0,-80c2.338,-1.839 4.504,-3.839 6.5,-6c2.669,-0.516 5.169,-1.183 7.5,-2Z" style="fill:#5ca242;"/><path d="M390.5,397.398l0,80l-5,0c-12.925,-0.475 -25.759,-1.475 -38.5,-3c-0.5,-25.998 -0.667,-51.998 -0.5,-78c3.155,-0.105 5.822,-1.272 8,-3.5c9,-0.667 18,-0.667 27,0c2.214,3.107 5.214,4.607 9,4.5Z" style="fill:#5da343;"/><path d="M576.5,370.398l4,0l0,62c-0.997,-20.16 -1.33,-40.493 -1,-61c-1.291,0.237 -2.291,-0.096 -3,-1Z" style="fill:#315723;"/><path d="M539.5,388.398c0.667,18 1.333,36 2,54c-0.06,0.543 -0.393,0.876 -1,1c-1,-18.321 -1.333,-36.655 -1,-55Z" style="fill:#315623;"/><path d="M530.5,389.398c0.337,18.523 1.337,36.856 3,55c-0.709,0.904 -1.709,1.237 -3,1l0,-56Z" style="fill:#335a25;"/><path d="M289.5,389.398c-0.709,0.904 -1.709,1.237 -3,1l0,47c-0.996,-15.825 -1.33,-31.825 -1,-48l4,0Z" style="fill:#305522;"/><path d="M498.5,407.398c0.666,7.659 1,15.493 1,23.5c-0.002,8.196 -0.669,16.03 -2,23.5c0.984,-15.589 1.317,-31.256 1,-47Z" style="fill:#203817;"/><path d="M127.5,385.398c-0.989,23.258 -1.323,46.592 -1,70c-0.667,-11.495 -1,-23.162 -1,-35c0.001,-12.02 0.668,-23.686 2,-35Z" style="fill:#2b4b1e;"/><path d="M289.5,426.398c0.996,14.157 1.329,28.49 1,43c1.291,-0.237 2.291,0.096 3,1l-4,0l0,-44Z" style="fill:#437630;"/><path d="M348.5,392.398c-1.419,0.951 -3.085,1.284 -5,1l0,64c-0.997,-21.494 -1.331,-43.16 -1,-65l6,0Z" style="fill:#477d33;"/><path d="M468.5,403.398c0.666,9.661 1,19.494 1,29.5c-0.001,10.19 -0.668,20.023 -2,29.5c0.987,-19.591 1.321,-39.257 1,-59Z" style="fill:#28481d;"/><path d="M390.5,434.398c0.996,14.49 1.329,29.157 1,44c-2.235,0.295 -4.235,-0.039 -6,-1l5,0l0,-43Z" style="fill:#192d12;"/></g></svg>