<?xml version="1.0" encoding="UTF-8" standalone="no"?>
<!DOCTYPE svg PUBLIC "-//W3C//DTD SVG 1.1//EN" "http://www.w3.org/Graphics/SVG/1.1/DTD/svg11.dtd">
<svg width="100%" height="100%" viewBox="0 0 856 633" version="1.1" xmlns="http://www.w3.org/2000/svg" xmlns:xlink="http://www.w3.org/1999/xlink" xml:space="preserve" xmlns:serif="http://www.serif.com/" style="fill-rule:evenodd;clip-rule:evenodd;stroke-linecap:round;stroke-linejoin:round;stroke-miterlimit:10;">
    <g transform="matrix(1,0,0,1,-493.517,-258.735)">
        <g transform="matrix(2.25972,0,0,2.25972,655.442,369.848)">
            <path d="M0,10.456C0.857,10.891 1.573,11.706 2.192,12.518C12.871,26.558 23.714,40.474 31.967,51.029C32.241,51.378 32.481,51.776 32.713,52.161C32.912,52.49 33.256,53.059 33.495,53.304C34.419,52.667 33.981,50.828 33.629,49.761C33.404,49.077 32.993,48.382 32.559,47.645L32.185,47.003C30.523,44.088 28.549,40.378 26.64,36.789C24.856,33.437 23.013,29.971 21.465,27.234C14.452,18.646 10.768,11.643 7.205,4.869C4.212,-0.82 1.386,-6.194 -3.24,-12.15C-4.193,-13.375 -4.869,-14.669 -5.412,-15.707C-5.554,-15.98 -5.721,-16.299 -5.88,-16.583C-5.89,-16.568 -5.899,-16.552 -5.909,-16.537C-6.552,-15.505 -6.896,-14.24 -7.26,-12.903C-7.64,-11.508 -8.034,-10.065 -8.805,-8.707C-9.489,-7.505 -10.573,-6.745 -11.857,-6.567C-13.518,-6.339 -15.423,-7.106 -16.954,-8.617C-20.709,-12.325 -24.551,-15.801 -28.266,-19.162C-34.925,-25.188 -41.797,-31.408 -48.626,-39.337C-47.619,-37.837 -46.525,-36.276 -45.449,-34.741C-43.6,-32.101 -41.687,-29.372 -40.304,-27.075C-39.298,-25.404 -38.283,-23.726 -37.264,-22.041C-28.4,-7.387 -19.234,7.764 -12.508,23.867C-12.423,24.013 -12.345,24.142 -12.274,24.255C-12.137,23.998 -11.994,23.718 -11.863,23.463C-11.582,22.913 -11.265,22.293 -10.89,21.624C-9.856,19.775 -8.747,18.49 -7.674,17.248C-6.588,15.99 -5.562,14.802 -4.688,13.074C-3.996,11.706 -3.08,10.289 -1.527,10.147C-0.972,10.096 -0.465,10.22 0,10.456M32.196,56.379C31.065,55.805 30.31,54.556 29.892,53.864C29.714,53.571 29.547,53.284 29.371,53.058C21.112,42.496 10.26,28.569 -0.431,14.514C-0.781,14.055 -1.033,13.782 -1.203,13.621C-1.33,13.801 -1.51,14.093 -1.747,14.561C-2.803,16.65 -4.011,18.049 -5.18,19.403C-6.19,20.571 -7.143,21.675 -8.014,23.232C-8.366,23.862 -8.665,24.446 -8.929,24.963C-9.846,26.756 -10.57,28.172 -12.134,28.211C-13.662,28.248 -14.629,26.791 -15.416,25.421C-15.452,25.361 -15.482,25.298 -15.509,25.234C-22.144,9.322 -31.265,-5.755 -40.084,-20.336C-41.105,-22.022 -42.121,-23.702 -43.128,-25.375C-44.452,-27.574 -46.247,-30.137 -48.148,-32.849C-50.293,-35.91 -52.511,-39.076 -54.04,-41.743C-54.345,-42.275 -54.479,-42.816 -54.621,-43.39C-54.683,-43.641 -54.753,-43.926 -54.849,-44.25C-55,-44.761 -54.895,-45.315 -54.565,-45.735C-54.236,-46.155 -53.723,-46.389 -53.189,-46.364C-50.091,-46.216 -48.633,-44.466 -47.569,-43.188L-47.433,-43.024C-40.312,-34.509 -33.064,-27.949 -26.054,-21.606C-22.313,-18.221 -18.444,-14.721 -14.638,-10.963C-13.747,-10.082 -12.828,-9.759 -12.309,-9.833C-12.12,-9.858 -11.896,-9.939 -11.67,-10.337C-11.104,-11.333 -10.782,-12.516 -10.441,-13.768C-10.03,-15.278 -9.605,-16.837 -8.706,-18.28C-8.065,-19.31 -7.146,-20.485 -5.727,-20.431C-4.131,-20.37 -3.371,-18.916 -2.491,-17.234C-1.984,-16.264 -1.409,-15.164 -0.637,-14.171C4.167,-7.985 7.06,-2.487 10.122,3.334C13.624,9.992 17.246,16.876 24.105,25.257C24.164,25.329 24.217,25.406 24.263,25.487C25.847,28.282 27.73,31.82 29.55,35.242C31.448,38.809 33.41,42.499 35.048,45.371L35.398,45.971C35.902,46.824 36.423,47.708 36.76,48.73C38.368,53.62 36.326,55.551 34.965,56.267C33.867,56.845 32.949,56.761 32.196,56.379" style="fill:rgb(97,166,14);fill-rule:nonzero;"/>
        </g>
        <g transform="matrix(1.41888,0.712284,-0.712284,1.41888,575.034,475.566)">
            <path d="M0,-19.218C0.46,-18.531 1.1,-17.899 1.77,-17.234C2.631,-16.382 3.52,-15.5 4.2,-14.362C4.833,-13.305 4.946,-12.127 4.518,-11.046C3.976,-9.678 2.581,-8.557 0.786,-8.047C-3.397,-6.858 -7.451,-5.513 -11.372,-4.211C-17.142,-2.296 -23.064,-0.331 -29.683,1.245C-29.678,1.244 -29.674,1.244 -29.669,1.244C-27.015,0.986 -24.271,0.722 -22.048,0.661L-17.207,0.523C-3.13,0.112 11.424,-0.314 25.685,1.372C25.65,1.318 25.614,1.265 25.58,1.214C25.298,0.786 24.979,0.302 24.648,-0.243C23.725,-1.761 23.248,-3.094 22.787,-4.384C22.33,-5.658 21.9,-6.862 21.033,-8.163C20.545,-8.897 19.527,-10.424 20.192,-11.899C20.787,-13.219 22.264,-13.587 23.631,-13.773C38.018,-15.736 52.436,-17.872 63.39,-19.515C63.73,-19.565 64.128,-19.581 64.541,-19.594C64.764,-19.6 65.081,-19.609 65.331,-19.635C64.99,-20.241 63.609,-20.562 63.142,-20.656C62.588,-20.767 61.936,-20.755 61.246,-20.742L60.632,-20.734C57.856,-20.724 54.385,-20.814 51.029,-20.901C47.908,-20.982 44.683,-21.066 42.097,-21.067C33.063,-19.519 26.526,-19.718 20.204,-19.911C14.914,-20.072 9.917,-20.225 3.784,-19.326C2.491,-19.137 1.274,-19.177 0.296,-19.209C0.202,-19.212 0.102,-19.215 0,-19.218M-40.728,4.562C-41.076,4.386 -41.354,4.09 -41.507,3.721C-41.71,3.227 -41.662,2.665 -41.377,2.213C-39.941,-0.061 -37.94,-0.424 -36.616,-0.664L-36.446,-0.695C-27.454,-2.346 -19.806,-4.885 -12.41,-7.34C-8.456,-8.652 -4.367,-10.009 -0.115,-11.218C0.74,-11.461 1.322,-11.927 1.455,-12.261C1.478,-12.323 1.519,-12.425 1.372,-12.67C0.905,-13.452 0.198,-14.151 -0.55,-14.893C-1.481,-15.815 -2.444,-16.769 -3.135,-18.039C-3.439,-18.595 -4.244,-20.074 -3.462,-21.341C-2.683,-22.605 -1.183,-22.555 0.404,-22.503C1.295,-22.473 2.304,-22.44 3.306,-22.587C9.728,-23.529 14.865,-23.372 20.305,-23.206C26.496,-23.016 32.897,-22.821 41.675,-24.338C41.767,-24.354 41.861,-24.362 41.954,-24.362C44.608,-24.364 47.915,-24.279 51.114,-24.197C54.447,-24.109 57.894,-24.021 60.62,-24.03L61.186,-24.038C61.982,-24.052 62.885,-24.068 63.788,-23.888C68.321,-22.988 68.736,-20.342 68.702,-19.246C68.616,-16.413 65.724,-16.33 64.635,-16.299C64.364,-16.291 64.102,-16.288 63.879,-16.254C52.915,-14.611 38.483,-12.473 24.076,-10.508C23.845,-10.477 23.659,-10.444 23.51,-10.413C23.579,-10.297 23.665,-10.156 23.776,-9.99C24.867,-8.353 25.387,-6.9 25.89,-5.494C26.315,-4.308 26.716,-3.187 27.465,-1.954C27.772,-1.448 28.069,-0.999 28.331,-0.601C29.261,0.808 30.063,2.024 29.375,3.314C28.706,4.566 27.172,4.68 25.785,4.691C25.715,4.691 25.646,4.687 25.577,4.679C11.469,2.982 -3.06,3.406 -17.11,3.818L-21.959,3.956C-24.068,4.013 -26.634,4.262 -29.352,4.524C-32.427,4.822 -35.607,5.129 -38.157,5.144C-38.702,5.146 -39.163,5.019 -39.65,4.882C-39.853,4.825 -40.082,4.76 -40.352,4.699C-40.483,4.669 -40.61,4.622 -40.728,4.562" style="fill:rgb(97,166,14);fill-rule:nonzero;"/>
        </g>
        <g transform="matrix(1.58763,0,0,1.58763,731.563,353.618)">
            <path d="M0,13.525C1.216,14.142 1.592,15.56 1.796,16.878C4.06,31.438 6.481,45.912 8.339,56.895C8.396,57.237 8.42,57.638 8.439,58.054C8.45,58.285 8.466,58.617 8.499,58.873C9.125,58.53 9.43,57.102 9.517,56.623C9.618,56.062 9.593,55.405 9.568,54.71L9.548,54.085C9.486,51.285 9.511,47.779 9.536,44.39C9.559,41.239 9.582,37.983 9.535,35.372C7.802,26.284 7.88,19.685 7.956,13.3C8.019,7.958 8.079,2.913 7.057,-3.262C6.842,-4.562 6.859,-5.79 6.873,-6.776C6.874,-6.88 6.876,-6.991 6.877,-7.105C6.182,-6.626 5.547,-5.961 4.88,-5.262C4.037,-4.379 3.165,-3.465 2.032,-2.759C0.98,-2.102 -0.201,-1.967 -1.295,-2.377C-2.68,-2.889 -3.836,-4.279 -4.383,-6.077C-5.662,-10.277 -7.097,-14.344 -8.485,-18.277C-10.548,-24.127 -12.666,-30.132 -14.391,-36.87C-14.381,-36.788 -14.372,-36.706 -14.362,-36.625C-14.054,-33.954 -13.735,-31.192 -13.632,-28.952L-13.402,-24.063C-12.721,-9.855 -12.016,4.833 -13.454,19.265C-13.391,19.222 -13.328,19.179 -13.268,19.136C-12.841,18.844 -12.359,18.513 -11.817,18.17C-10.303,17.211 -8.967,16.704 -7.676,16.215C-6.397,15.731 -5.19,15.272 -3.891,14.372C-2.781,13.602 -1.468,12.89 -0.151,13.455C-0.099,13.477 -0.049,13.5 0,13.525M6.823,61.938C5.287,61.159 5.189,59.094 5.147,58.211C5.134,57.936 5.126,57.671 5.088,57.446C3.23,46.451 0.806,31.964 -1.461,17.384C-1.499,17.14 -1.537,16.945 -1.572,16.793C-1.693,16.865 -1.839,16.959 -2.013,17.08C-3.644,18.212 -5.099,18.763 -6.508,19.297C-7.698,19.749 -8.822,20.174 -10.053,20.954C-10.557,21.274 -11.006,21.582 -11.402,21.854C-12.8,22.814 -14.009,23.645 -15.313,22.983C-15.315,22.982 -15.317,22.981 -15.318,22.981C-16.587,22.333 -16.731,20.791 -16.767,19.397C-16.769,19.327 -16.766,19.258 -16.759,19.188C-15.312,4.919 -16.014,-9.735 -16.694,-23.906L-16.925,-28.801C-17.022,-30.926 -17.321,-33.511 -17.637,-36.246C-17.995,-39.347 -18.365,-42.552 -18.428,-45.126C-18.441,-45.675 -18.32,-46.141 -18.192,-46.635C-18.139,-46.841 -18.078,-47.074 -18.021,-47.346C-17.911,-47.869 -17.554,-48.306 -17.064,-48.518C-16.574,-48.731 -16.014,-48.699 -15.554,-48.416C-13.238,-47.013 -12.851,-45.084 -12.569,-43.676L-12.535,-43.504C-10.698,-34.463 -7.993,-26.792 -5.376,-19.374C-3.977,-15.407 -2.53,-11.306 -1.23,-7.037C-0.968,-6.173 -0.477,-5.575 -0.138,-5.463C-0.073,-5.438 0.036,-5.398 0.287,-5.554C1.067,-6.041 1.762,-6.768 2.496,-7.537C3.409,-8.494 4.353,-9.484 5.619,-10.205C6.173,-10.519 7.658,-11.354 8.93,-10.597C10.213,-9.839 10.191,-8.328 10.169,-6.73C10.155,-5.829 10.141,-4.809 10.308,-3.799C11.378,2.661 11.317,7.848 11.252,13.339C11.178,19.592 11.101,26.057 12.798,34.89C12.816,34.982 12.825,35.075 12.827,35.169C12.88,37.846 12.855,41.185 12.832,44.413C12.807,47.78 12.782,51.261 12.843,54.012L12.861,54.588C12.891,55.389 12.924,56.297 12.76,57.207C11.935,61.791 9.285,62.256 8.183,62.243C7.636,62.237 7.189,62.124 6.823,61.938" style="fill:rgb(97,166,14);fill-rule:nonzero;"/>
        </g>
        <g transform="matrix(2.10924,0,0,2.10924,1213.72,793.245)">
            <path d="M0,-10.456C-0.857,-10.891 -1.573,-11.706 -2.192,-12.518C-12.871,-26.558 -23.714,-40.474 -31.967,-51.029C-32.241,-51.378 -32.481,-51.776 -32.714,-52.161C-32.912,-52.49 -33.256,-53.059 -33.495,-53.304C-34.419,-52.667 -33.981,-50.828 -33.63,-49.761C-33.404,-49.077 -32.993,-48.382 -32.559,-47.645L-32.185,-47.003C-30.523,-44.088 -28.549,-40.378 -26.64,-36.789C-24.856,-33.437 -23.013,-29.971 -21.465,-27.234C-14.453,-18.646 -10.768,-11.643 -7.205,-4.869C-4.212,0.82 -1.386,6.194 3.24,12.15C4.193,13.375 4.869,14.669 5.411,15.707C5.554,15.98 5.721,16.299 5.88,16.583C5.89,16.568 5.899,16.552 5.909,16.537C6.552,15.505 6.896,14.24 7.26,12.903C7.64,11.508 8.033,10.065 8.805,8.707C9.489,7.505 10.573,6.745 11.857,6.567C13.518,6.339 15.423,7.106 16.954,8.617C20.709,12.325 24.551,15.801 28.266,19.162C34.925,25.188 41.797,31.408 48.626,39.337C47.619,37.837 46.525,36.276 45.449,34.741C43.6,32.101 41.687,29.372 40.304,27.075C39.298,25.404 38.283,23.726 37.264,22.041C28.4,7.387 19.234,-7.764 12.508,-23.867C12.423,-24.013 12.345,-24.142 12.275,-24.255C12.137,-23.998 11.994,-23.718 11.863,-23.463C11.582,-22.913 11.265,-22.293 10.89,-21.624C9.856,-19.775 8.747,-18.49 7.674,-17.248C6.588,-15.99 5.562,-14.802 4.688,-13.074C3.996,-11.706 3.08,-10.289 1.527,-10.147C0.972,-10.096 0.465,-10.22 0,-10.456M-32.196,-56.379C-31.065,-55.805 -30.31,-54.556 -29.892,-53.864C-29.714,-53.571 -29.547,-53.284 -29.371,-53.058C-21.112,-42.496 -10.26,-28.569 0.431,-14.514C0.781,-14.055 1.033,-13.782 1.203,-13.621C1.33,-13.801 1.51,-14.093 1.747,-14.561C2.803,-16.65 4.011,-18.049 5.18,-19.403C6.19,-20.571 7.143,-21.675 8.014,-23.232C8.366,-23.862 8.665,-24.446 8.929,-24.963C9.846,-26.756 10.57,-28.172 12.134,-28.211C13.662,-28.248 14.629,-26.791 15.416,-25.421C15.452,-25.361 15.482,-25.298 15.509,-25.234C22.144,-9.322 31.265,5.755 40.084,20.336C41.105,22.022 42.121,23.702 43.128,25.375C44.452,27.574 46.247,30.137 48.148,32.849C50.293,35.91 52.511,39.076 54.04,41.743C54.345,42.275 54.479,42.816 54.621,43.39C54.683,43.641 54.752,43.926 54.849,44.25C55,44.761 54.895,45.315 54.565,45.735C54.236,46.155 53.723,46.389 53.189,46.364C50.091,46.216 48.633,44.466 47.569,43.188L47.433,43.024C40.312,34.509 33.064,27.949 26.054,21.606C22.313,18.221 18.444,14.721 14.638,10.963C13.747,10.082 12.828,9.759 12.309,9.833C12.12,9.858 11.896,9.939 11.67,10.337C11.104,11.333 10.782,12.516 10.441,13.768C10.03,15.278 9.605,16.837 8.706,18.28C8.065,19.31 7.146,20.485 5.727,20.431C4.131,20.37 3.371,18.916 2.491,17.234C1.984,16.264 1.409,15.164 0.637,14.171C-4.167,7.985 -7.06,2.487 -10.123,-3.334C-13.624,-9.992 -17.246,-16.876 -24.105,-25.257C-24.164,-25.329 -24.217,-25.406 -24.263,-25.487C-25.847,-28.282 -27.73,-31.82 -29.55,-35.242C-31.448,-38.809 -33.41,-42.499 -35.048,-45.371L-35.398,-45.971C-35.902,-46.824 -36.423,-47.708 -36.76,-48.73C-38.368,-53.62 -36.326,-55.551 -34.965,-56.267C-33.867,-56.845 -32.949,-56.761 -32.196,-56.379" style="fill:rgb(97,166,14);fill-rule:nonzero;"/>
        </g>
        <g transform="matrix(1.24009,0.464041,-0.464041,1.24009,1259,667.399)">
            <path d="M0,19.218C-0.46,18.531 -1.1,17.899 -1.77,17.234C-2.631,16.382 -3.52,15.5 -4.2,14.362C-4.833,13.305 -4.946,12.127 -4.518,11.046C-3.976,9.678 -2.581,8.557 -0.786,8.047C3.397,6.858 7.451,5.513 11.372,4.211C17.142,2.296 23.064,0.331 29.683,-1.245C29.678,-1.244 29.674,-1.244 29.669,-1.244C27.015,-0.986 24.271,-0.722 22.048,-0.661L17.207,-0.523C3.13,-0.112 -11.424,0.314 -25.685,-1.372C-25.65,-1.318 -25.614,-1.265 -25.58,-1.214C-25.297,-0.786 -24.979,-0.302 -24.648,0.243C-23.725,1.761 -23.248,3.094 -22.786,4.384C-22.33,5.658 -21.9,6.862 -21.033,8.163C-20.545,8.897 -19.527,10.424 -20.192,11.899C-20.787,13.219 -22.264,13.587 -23.631,13.773C-38.018,15.736 -52.436,17.873 -63.39,19.515C-63.73,19.565 -64.127,19.581 -64.541,19.594C-64.764,19.6 -65.081,19.609 -65.331,19.635C-64.99,20.241 -63.609,20.562 -63.142,20.656C-62.588,20.767 -61.936,20.755 -61.246,20.742L-60.631,20.734C-57.856,20.724 -54.385,20.814 -51.028,20.901C-47.908,20.982 -44.683,21.066 -42.097,21.067C-33.063,19.519 -26.526,19.718 -20.204,19.911C-14.914,20.072 -9.917,20.225 -3.783,19.326C-2.491,19.137 -1.274,19.177 -0.295,19.209C-0.202,19.212 -0.102,19.215 0,19.218M40.728,-4.562C41.076,-4.386 41.354,-4.09 41.507,-3.721C41.71,-3.227 41.662,-2.664 41.377,-2.213C39.941,0.061 37.94,0.424 36.616,0.664L36.446,0.695C27.454,2.346 19.806,4.885 12.41,7.34C8.456,8.652 4.367,10.009 0.115,11.218C-0.74,11.461 -1.322,11.927 -1.455,12.261C-1.478,12.323 -1.519,12.425 -1.372,12.67C-0.905,13.452 -0.198,14.151 0.55,14.893C1.481,15.815 2.444,16.769 3.135,18.039C3.439,18.595 4.244,20.074 3.463,21.341C2.683,22.605 1.183,22.555 -0.404,22.503C-1.295,22.473 -2.304,22.44 -3.306,22.587C-9.728,23.529 -14.865,23.372 -20.305,23.206C-26.496,23.016 -32.897,22.821 -41.675,24.338C-41.767,24.354 -41.861,24.363 -41.954,24.362C-44.608,24.364 -47.915,24.279 -51.114,24.197C-54.447,24.109 -57.894,24.021 -60.62,24.03L-61.186,24.038C-61.982,24.052 -62.885,24.068 -63.788,23.888C-68.321,22.988 -68.736,20.342 -68.702,19.246C-68.615,16.413 -65.724,16.33 -64.635,16.299C-64.364,16.291 -64.102,16.288 -63.879,16.254C-52.915,14.611 -38.483,12.473 -24.076,10.508C-23.845,10.477 -23.659,10.444 -23.51,10.413C-23.579,10.297 -23.665,10.156 -23.776,9.991C-24.867,8.353 -25.387,6.9 -25.89,5.495C-26.315,4.308 -26.715,3.187 -27.465,1.954C-27.772,1.448 -28.069,0.999 -28.331,0.601C-29.261,-0.808 -30.063,-2.024 -29.375,-3.314C-28.706,-4.566 -27.172,-4.68 -25.785,-4.69C-25.715,-4.691 -25.646,-4.687 -25.577,-4.679C-11.469,-2.982 3.06,-3.406 17.11,-3.818L21.959,-3.956C24.068,-4.013 26.634,-4.262 29.352,-4.524C32.427,-4.822 35.607,-5.129 38.157,-5.144C38.702,-5.146 39.162,-5.019 39.65,-4.882C39.853,-4.825 40.082,-4.76 40.352,-4.699C40.483,-4.669 40.61,-4.622 40.728,-4.562" style="fill:rgb(97,166,14);fill-rule:nonzero;"/>
        </g>
        <g transform="matrix(1.22709,0.504911,-0.504911,1.22709,1106.21,791.028)">
            <path d="M0,-13.525C-1.216,-14.142 -1.592,-15.56 -1.796,-16.878C-4.059,-31.438 -6.481,-45.912 -8.339,-56.895C-8.396,-57.237 -8.42,-57.638 -8.439,-58.054C-8.45,-58.285 -8.466,-58.617 -8.499,-58.873C-9.125,-58.53 -9.43,-57.102 -9.517,-56.623C-9.618,-56.062 -9.593,-55.405 -9.568,-54.71L-9.548,-54.085C-9.486,-51.285 -9.511,-47.779 -9.536,-44.39C-9.559,-41.239 -9.582,-37.983 -9.535,-35.372C-7.802,-26.284 -7.88,-19.685 -7.956,-13.3C-8.019,-7.958 -8.079,-2.913 -7.057,3.262C-6.841,4.562 -6.859,5.79 -6.873,6.776C-6.874,6.88 -6.876,6.991 -6.877,7.105C-6.182,6.626 -5.547,5.961 -4.88,5.262C-4.037,4.379 -3.165,3.465 -2.032,2.759C-0.98,2.102 0.202,1.967 1.295,2.377C2.68,2.889 3.836,4.279 4.383,6.077C5.662,10.277 7.097,14.344 8.485,18.277C10.548,24.127 12.666,30.132 14.391,36.87C14.381,36.788 14.372,36.706 14.363,36.625C14.054,33.954 13.735,31.192 13.632,28.952L13.402,24.063C12.721,9.855 12.016,-4.833 13.454,-19.265C13.391,-19.222 13.328,-19.179 13.268,-19.136C12.841,-18.844 12.359,-18.513 11.817,-18.17C10.303,-17.211 8.967,-16.704 7.676,-16.215C6.397,-15.731 5.19,-15.272 3.891,-14.372C2.781,-13.602 1.468,-12.89 0.151,-13.455C0.099,-13.477 0.049,-13.5 0,-13.525M-6.823,-61.938C-5.287,-61.159 -5.189,-59.094 -5.147,-58.211C-5.134,-57.936 -5.126,-57.671 -5.088,-57.446C-3.23,-46.451 -0.806,-31.964 1.461,-17.384C1.499,-17.14 1.537,-16.945 1.572,-16.793C1.693,-16.865 1.839,-16.959 2.013,-17.08C3.644,-18.211 5.099,-18.763 6.508,-19.297C7.698,-19.749 8.822,-20.174 10.053,-20.954C10.558,-21.274 11.006,-21.582 11.402,-21.854C12.8,-22.814 14.009,-23.645 15.313,-22.983C15.315,-22.982 15.317,-22.981 15.318,-22.981C16.587,-22.333 16.731,-20.791 16.767,-19.397C16.769,-19.327 16.766,-19.258 16.759,-19.188C15.312,-4.919 16.014,9.735 16.694,23.906L16.925,28.801C17.022,30.927 17.321,33.511 17.637,36.246C17.995,39.347 18.365,42.552 18.428,45.126C18.441,45.675 18.32,46.141 18.192,46.635C18.139,46.841 18.078,47.074 18.021,47.346C17.911,47.869 17.554,48.306 17.064,48.518C16.574,48.731 16.014,48.699 15.554,48.416C13.238,47.013 12.851,45.084 12.569,43.676L12.535,43.504C10.698,34.463 7.993,26.792 5.376,19.374C3.977,15.407 2.53,11.306 1.23,7.037C0.968,6.173 0.477,5.575 0.138,5.463C0.073,5.438 -0.036,5.398 -0.287,5.554C-1.067,6.041 -1.762,6.768 -2.496,7.537C-3.409,8.494 -4.353,9.484 -5.619,10.205C-6.173,10.519 -7.658,11.354 -8.93,10.597C-10.213,9.839 -10.191,8.328 -10.169,6.73C-10.155,5.829 -10.141,4.809 -10.308,3.799C-11.378,-2.661 -11.317,-7.848 -11.252,-13.339C-11.177,-19.592 -11.101,-26.057 -12.798,-34.89C-12.816,-34.982 -12.825,-35.075 -12.827,-35.169C-12.88,-37.846 -12.855,-41.185 -12.832,-44.413C-12.807,-47.78 -12.782,-51.261 -12.843,-54.012L-12.861,-54.588C-12.891,-55.388 -12.924,-56.297 -12.76,-57.207C-11.935,-61.791 -9.285,-62.256 -8.183,-62.243C-7.636,-62.237 -7.189,-62.124 -6.823,-61.938" style="fill:rgb(97,166,14);fill-rule:nonzero;"/>
        </g>
        <g transform="matrix(1,0,0,1,1094.16,261.746)">
            <path d="M0,520.295C-8.738,520.089 -16.919,519.763 -25.079,519.648C-39.07,519.449 -53.076,520.186 -67.073,520.608C-74.294,520.826 -81.507,521.42 -88.727,521.48C-107.847,521.64 -126.986,523.87 -146.082,521.518C-158.65,519.969 -171.241,520.32 -183.835,519.928C-194.159,519.606 -204.298,520.714 -214.527,521.223C-226.39,521.813 -238.328,521.367 -250.214,520.893C-259.307,520.53 -268.448,520.553 -277.482,519.789C-291.236,518.625 -305.055,519.847 -318.763,518.052C-321.759,517.659 -324.827,517.72 -327.861,517.734C-343.287,517.803 -389.531,516.265 -397.083,517.747C-405.938,519.485 -414.798,518.616 -423.654,518.843C-427.519,518.942 -431.102,517.558 -434.057,515.158C-446.35,505.171 -453.851,492.441 -452.953,476.346C-451.636,452.743 -454.075,217.714 -448.808,202.203C-446.789,196.259 -444.638,189.963 -440.894,185.1C-436.095,178.866 -429.55,174.071 -421.314,172.499C-414.419,171.184 -410.574,164.475 -404.094,161.73C-392.023,156.615 -379.73,150.437 -368.852,143.069C-360.744,137.578 -354.545,132.543 -346.396,127.106C-342.128,124.258 -337.552,121.617 -333.075,119.147C-321.245,112.623 -305.221,112.816 -291.756,111.644C-282.22,110.815 -272.718,109.552 -263.227,108.288C-258.559,107.666 -253.849,107.201 -249.245,107.848C-233.501,110.062 -106.127,100.046 26.521,117.822C30.879,118.687 35.354,118.671 39.767,118.309C45.664,117.827 47.134,116.494 47.975,110.722C46.696,100.046 45.777,85.103 46.696,72.751C47.396,63.351 41.425,45.985 38.97,37.251C35.095,23.47 30.762,21.56 38.97,7.421C46.928,1.181 58.581,-3.575 65.716,-2.957C78.707,-1.83 95.053,14.813 89.401,31.24C88.036,35.208 87.273,39.378 86.039,43.396C84.195,49.401 84.213,55.374 86.012,61.344C87.969,67.834 89.977,74.309 92.047,80.764C96.297,94.022 99.079,107.388 96.478,121.432C95.547,126.462 96.69,127.792 101.621,128.614C111.76,130.303 121.918,132.488 132.252,131.46C141.683,130.522 152.128,137.686 154.878,147.733C156.431,153.404 157.222,158.819 156.826,164.871C155.671,182.518 158.319,199.368 171.059,213.142C174.939,223.388 176.869,249.144 173.539,258.796C172.429,290.765 149.657,298.733 150.101,311.513C150.19,314.065 149.275,349.2 150.101,351.565C149.284,380.299 148.479,399.772 149.831,404.502C153.89,418.707 89.625,501.192 75.804,505.948C71.387,507.468 66.934,508.908 62.595,510.63C49.248,515.928 35.214,518.222 21.139,520.409C13.884,521.536 6.671,519.979 0,520.295" style="fill:rgb(236,170,0);fill-rule:nonzero;"/>
        </g>
        <g transform="matrix(3.40861,0,0,3.40861,54.3798,-1182.54)">
            <path d="M217.406,570.278L211.881,570.278L211.881,561.929L217.297,561.929L217.297,563.698L213.904,563.698L213.904,565.298L216.885,565.298L216.885,567.031L213.904,567.031L213.904,568.509L217.406,568.509L217.406,570.278Z" style="fill-rule:nonzero;"/>
            <path d="M219.938,567.309L219.938,570.278L218.012,570.278L218.012,564.631L219.938,564.631L219.938,565.516C220.027,565.193 220.239,564.94 220.574,564.759C220.91,564.577 221.227,564.486 221.525,564.486C222.269,564.486 222.83,564.726 223.21,565.207C223.589,565.688 223.779,566.376 223.779,567.273L223.779,570.278L221.853,570.278L221.853,567.333C221.853,566.994 221.76,566.746 221.574,566.588C221.388,566.431 221.174,566.352 220.932,566.352C220.673,566.352 220.443,566.429 220.241,566.582C220.039,566.736 219.938,566.978 219.938,567.309Z" style="fill-rule:nonzero;"/>
            <path d="M228.25,568.097L229.862,568.993C229.24,569.922 228.408,570.387 227.366,570.387C226.493,570.387 225.752,570.114 225.142,569.569C224.532,569.024 224.227,568.315 224.227,567.442C224.227,566.57 224.534,565.859 225.148,565.31C225.762,564.761 226.501,564.486 227.366,564.486C228.4,564.486 229.227,564.951 229.849,565.879L228.274,566.825C228.048,566.453 227.717,566.267 227.281,566.267C226.958,566.267 226.681,566.382 226.451,566.612C226.221,566.843 226.105,567.119 226.105,567.442C226.105,567.766 226.221,568.042 226.451,568.272C226.681,568.503 226.958,568.618 227.281,568.618C227.685,568.618 228.008,568.444 228.25,568.097Z" style="fill-rule:nonzero;"/>
            <path d="M230.322,564.631L230.322,570.278L232.249,570.278L232.249,564.631L230.322,564.631ZM230.116,562.753C230.116,562.446 230.231,562.188 230.461,561.978C230.692,561.768 230.964,561.663 231.279,561.663C231.602,561.663 231.875,561.768 232.097,561.978C232.319,562.188 232.43,562.446 232.43,562.753C232.43,563.06 232.319,563.321 232.097,563.535C231.875,563.749 231.602,563.856 231.279,563.856C230.964,563.856 230.692,563.747 230.461,563.529C230.231,563.311 230.116,563.052 230.116,562.753Z" style="fill-rule:nonzero;"/>
            <path d="M238.707,567.37C238.707,567.467 238.694,567.673 238.67,567.988L234.623,567.988C234.656,568.246 234.799,568.454 235.053,568.612C235.308,568.769 235.597,568.848 235.92,568.848C236.372,568.848 236.732,568.69 236.998,568.375C237.087,568.448 237.315,568.614 237.683,568.872C238.05,569.131 238.266,569.284 238.331,569.333C237.798,570.035 236.946,570.387 235.774,570.387C234.942,570.387 234.234,570.11 233.648,569.557C233.062,569.003 232.77,568.291 232.77,567.418C232.77,566.554 233.062,565.849 233.648,565.304C234.234,564.759 234.942,564.486 235.774,564.486C236.606,564.486 237.303,564.751 237.864,565.28C238.426,565.809 238.707,566.505 238.707,567.37ZM234.623,566.909L236.877,566.909C236.796,566.594 236.643,566.376 236.417,566.255C236.19,566.134 235.968,566.073 235.75,566.073C235.621,566.073 235.49,566.089 235.356,566.122C235.223,566.154 235.078,566.239 234.92,566.376C234.763,566.514 234.664,566.691 234.623,566.909Z" style="fill-rule:nonzero;"/>
            <path d="M241.081,567.309L241.081,570.278L239.155,570.278L239.155,564.631L241.081,564.631L241.081,565.516C241.17,565.193 241.382,564.94 241.717,564.759C242.053,564.577 242.37,564.486 242.669,564.486C243.412,564.486 243.973,564.726 244.353,565.207C244.732,565.688 244.922,566.376 244.922,567.273L244.922,570.278L242.996,570.278L242.996,567.333C242.996,566.994 242.903,566.746 242.717,566.588C242.531,566.431 242.317,566.352 242.075,566.352C241.816,566.352 241.586,566.429 241.384,566.582C241.182,566.736 241.081,566.978 241.081,567.309Z" style="fill-rule:nonzero;"/>
            <path d="M249.684,565.152L249.684,561.663L251.611,561.663L251.611,570.278L249.793,570.278L249.793,569.466C249.64,569.773 249.409,570.003 249.102,570.157C248.795,570.31 248.468,570.387 248.121,570.387C247.386,570.387 246.744,570.116 246.195,569.575C245.645,569.034 245.371,568.323 245.371,567.442C245.371,566.562 245.645,565.849 246.195,565.304C246.744,564.759 247.386,564.486 248.121,564.486C248.759,564.486 249.28,564.708 249.684,565.152ZM247.679,566.625C247.449,566.855 247.333,567.131 247.333,567.455C247.333,567.778 247.449,568.054 247.679,568.285C247.909,568.515 248.186,568.63 248.509,568.63C248.832,568.63 249.108,568.515 249.339,568.285C249.569,568.054 249.684,567.778 249.684,567.455C249.684,567.131 249.569,566.855 249.339,566.625C249.108,566.394 248.832,566.279 248.509,566.279C248.186,566.279 247.909,566.394 247.679,566.625Z" style="fill-rule:nonzero;"/>
            <path d="M258.069,567.37C258.069,567.467 258.056,567.673 258.032,567.988L253.985,567.988C254.018,568.246 254.161,568.454 254.415,568.612C254.67,568.769 254.959,568.848 255.282,568.848C255.734,568.848 256.094,568.69 256.36,568.375C256.449,568.448 256.677,568.614 257.045,568.872C257.412,569.131 257.628,569.284 257.693,569.333C257.16,570.035 256.308,570.387 255.136,570.387C254.304,570.387 253.596,570.11 253.01,569.557C252.424,569.003 252.132,568.291 252.132,567.418C252.132,566.554 252.424,565.849 253.01,565.304C253.596,564.759 254.304,564.486 255.136,564.486C255.968,564.486 256.665,564.751 257.226,565.28C257.788,565.809 258.069,566.505 258.069,567.37ZM253.985,566.909L256.239,566.909C256.158,566.594 256.005,566.376 255.779,566.255C255.552,566.134 255.33,566.073 255.112,566.073C254.983,566.073 254.852,566.089 254.718,566.122C254.585,566.154 254.44,566.239 254.282,566.376C254.125,566.514 254.026,566.691 253.985,566.909Z" style="fill-rule:nonzero;"/>
            <path d="M263.969,568.448L263.969,570.278L263.424,570.278C262.576,570.278 261.912,570.041 261.431,569.569C260.95,569.096 260.71,568.412 260.71,567.515L260.71,561.663L262.636,561.663L262.636,567.515C262.645,567.822 262.719,568.054 262.861,568.212C263.002,568.369 263.19,568.448 263.424,568.448L263.969,568.448Z" style="fill-rule:nonzero;"/>
            <path d="M266.332,569.078C266.566,569.078 266.792,569.005 267.011,568.86C267.229,568.715 267.378,568.525 267.459,568.291C267.216,568.097 266.881,568 266.453,568C266.187,568 266.001,568.058 265.896,568.176C265.791,568.293 265.738,568.416 265.738,568.545C265.738,568.658 265.789,568.775 265.89,568.896C265.991,569.018 266.138,569.078 266.332,569.078ZM265.181,566.643L264.163,565.637C264.712,564.87 265.581,564.486 266.768,564.486C267.527,564.486 268.16,564.69 268.664,565.098C269.169,565.506 269.422,566.114 269.422,566.921L269.422,570.278L267.495,570.278L267.495,569.672C267.317,569.906 267.085,570.084 266.798,570.205C266.512,570.326 266.239,570.387 265.981,570.387C265.31,570.387 264.781,570.229 264.393,569.914C264.006,569.599 263.812,569.151 263.812,568.569C263.812,568.044 264.022,567.634 264.442,567.339C264.862,567.045 265.423,566.897 266.126,566.897C266.667,566.897 267.116,566.998 267.471,567.2L267.471,567.031C267.471,566.756 267.368,566.528 267.162,566.346C266.956,566.164 266.724,566.073 266.465,566.073C265.916,566.073 265.488,566.263 265.181,566.643Z" style="fill-rule:nonzero;"/>
            <path d="M274.402,568.424L274.402,570.278L272.475,570.278L272.475,564.631L274.305,564.631L274.305,566.025C274.442,565.516 274.674,565.132 275.001,564.874C275.328,564.615 275.69,564.486 276.086,564.486C276.417,564.486 276.696,564.539 276.922,564.644L276.449,566.461C276.183,566.364 275.892,566.316 275.577,566.316C275.181,566.316 274.886,566.467 274.692,566.77C274.498,567.073 274.402,567.624 274.402,568.424Z" style="fill-rule:nonzero;"/>
            <path d="M279.078,569.078C279.313,569.078 279.539,569.005 279.757,568.86C279.975,568.715 280.125,568.525 280.205,568.291C279.963,568.097 279.628,568 279.2,568C278.933,568 278.747,568.058 278.642,568.176C278.537,568.293 278.485,568.416 278.485,568.545C278.485,568.658 278.535,568.775 278.636,568.896C278.737,569.018 278.885,569.078 279.078,569.078ZM277.927,566.643L276.91,565.637C277.459,564.87 278.327,564.486 279.515,564.486C280.274,564.486 280.906,564.69 281.411,565.098C281.916,565.506 282.168,566.114 282.168,566.921L282.168,570.278L280.242,570.278L280.242,569.672C280.064,569.906 279.832,570.084 279.545,570.205C279.258,570.326 278.986,570.387 278.727,570.387C278.057,570.387 277.528,570.229 277.14,569.914C276.752,569.599 276.558,569.151 276.558,568.569C276.558,568.044 276.768,567.634 277.188,567.339C277.608,567.045 278.17,566.897 278.872,566.897C279.414,566.897 279.862,566.998 280.217,567.2L280.217,567.031C280.217,566.756 280.114,566.528 279.908,566.346C279.702,566.164 279.47,566.073 279.212,566.073C278.662,566.073 278.234,566.263 277.927,566.643Z" style="fill-rule:nonzero;"/>
            <path d="M286.93,565.152L286.93,561.663L288.856,561.663L288.856,570.278L287.039,570.278L287.039,569.466C286.885,569.773 286.655,570.003 286.348,570.157C286.041,570.31 285.714,570.387 285.367,570.387C284.632,570.387 283.99,570.116 283.44,569.575C282.891,569.034 282.616,568.323 282.616,567.442C282.616,566.562 282.891,565.849 283.44,565.304C283.99,564.759 284.632,564.486 285.367,564.486C286.005,564.486 286.526,564.708 286.93,565.152ZM284.925,566.625C284.694,566.855 284.579,567.131 284.579,567.455C284.579,567.778 284.694,568.054 284.925,568.285C285.155,568.515 285.431,568.63 285.755,568.63C286.078,568.63 286.354,568.515 286.585,568.285C286.815,568.054 286.93,567.778 286.93,567.455C286.93,567.131 286.815,566.855 286.585,566.625C286.354,566.394 286.078,566.279 285.755,566.279C285.431,566.279 285.155,566.394 284.925,566.625Z" style="fill-rule:nonzero;"/>
            <path d="M289.705,564.631L289.705,570.278L291.631,570.278L291.631,564.631L289.705,564.631ZM289.499,562.753C289.499,562.446 289.614,562.188 289.844,561.978C290.074,561.768 290.347,561.663 290.662,561.663C290.985,561.663 291.257,561.768 291.48,561.978C291.702,562.188 291.813,562.446 291.813,562.753C291.813,563.06 291.702,563.321 291.48,563.535C291.257,563.749 290.985,563.856 290.662,563.856C290.347,563.856 290.074,563.747 289.844,563.529C289.614,563.311 289.499,563.052 289.499,562.753Z" style="fill-rule:nonzero;"/>
            <path d="M295.145,570.387C294.321,570.387 293.616,570.112 293.031,569.563C292.445,569.014 292.152,568.307 292.152,567.442C292.152,566.57 292.445,565.859 293.031,565.31C293.616,564.761 294.321,564.486 295.145,564.486C295.977,564.486 296.69,564.761 297.283,565.31C297.877,565.859 298.174,566.57 298.174,567.442C298.174,568.307 297.877,569.014 297.283,569.563C296.69,570.112 295.977,570.387 295.145,570.387ZM294.315,566.612C294.085,566.843 293.97,567.119 293.97,567.442C293.97,567.766 294.085,568.042 294.315,568.272C294.545,568.503 294.822,568.618 295.145,568.618C295.468,568.618 295.745,568.503 295.975,568.272C296.205,568.042 296.32,567.766 296.32,567.442C296.32,567.119 296.205,566.843 295.975,566.612C295.745,566.382 295.468,566.267 295.145,566.267C294.822,566.267 294.545,566.382 294.315,566.612Z" style="fill-rule:nonzero;"/>
            <path d="M298.961,567.479L298.743,561.929L300.767,561.929L300.549,567.479L298.961,567.479ZM298.598,569.26C298.598,568.945 298.709,568.682 298.931,568.472C299.153,568.262 299.422,568.157 299.737,568.157C300.06,568.157 300.335,568.262 300.561,568.472C300.787,568.682 300.9,568.945 300.9,569.26C300.9,569.583 300.787,569.852 300.561,570.066C300.335,570.28 300.06,570.387 299.737,570.387C299.422,570.387 299.153,570.28 298.931,570.066C298.709,569.852 298.598,569.583 298.598,569.26Z" style="fill-rule:nonzero;"/>
        </g>
        <g transform="matrix(3.40861,0,0,3.40861,43.5728,-1192.17)">
            <path d="M211.626,573.052L211.844,567.503L213.432,567.503L213.65,573.052L211.626,573.052ZM211.481,565.613C211.481,565.29 211.592,565.021 211.814,564.807C212.036,564.593 212.305,564.486 212.62,564.486C212.943,564.486 213.218,564.593 213.444,564.807C213.67,565.021 213.783,565.29 213.783,565.613C213.783,565.928 213.67,566.19 213.444,566.4C213.218,566.61 212.943,566.715 212.62,566.715C212.305,566.715 212.036,566.61 211.814,566.4C211.592,566.19 211.481,565.928 211.481,565.613Z" style="fill-rule:nonzero;"/>
        </g>
        <g transform="matrix(1,0,0,1,752.714,654.155)">
            <path d="M0,97.603C-14.872,92.248 -26.672,82.734 -32.272,71.584C-35.152,65.851 -36.433,59.749 -36.557,53.664C-36.974,33.328 -23.894,13.057 -1.93,0" style="fill:none;fill-rule:nonzero;stroke:black;stroke-width:5px;"/>
        </g>
        <g transform="matrix(1,0,0,1,744.04,647.425)">
            <path d="M0,27.751C-4.485,20.977 -8.833,14.113 -13.041,7.164C-13.296,6.743 -13.039,6.204 -12.552,6.131C-4.026,4.847 4.388,2.198 12.656,-0.294C13.193,-0.456 13.69,0.065 13.507,0.595C9.969,10.813 5.557,17.712 1.211,27.637C0.991,28.138 0.302,28.207 0,27.751" style="fill-rule:nonzero;"/>
        </g>
        <g transform="matrix(1,0,0,1,676.272,783.998)">
            <path d="M0,-337.544C2.548,-333.536 6.655,-334.776 10.215,-334.744C16.732,-334.685 23.256,-335.287 29.77,-335.175C46.107,-334.893 62.375,-333.442 78.669,-332.277C98.159,-330.882 117.713,-330.08 137.316,-330.759C147.751,-331.121 158.263,-330.105 168.705,-329.274C187.762,-327.758 206.776,-325.66 225.844,-324.323C235.372,-323.654 244.981,-324.072 254.553,-324.099C268.533,-324.138 282.51,-324.613 296.487,-324.785C308.261,-324.93 319.723,-322.969 331.336,-322.333C343.645,-321.659 355.932,-320.409 368.256,-320.237C373.862,-320.158 379.508,-319.691 384.946,-319.026C398.812,-317.331 412.443,-319.325 426.149,-320.022C438.281,-320.639 450.377,-321.449 462.477,-319.769C464.091,-319.545 465.732,-319.453 467.312,-319.091C468.195,-318.889 468.959,-318.229 469.031,-317.149C469.106,-316.023 468.277,-315.39 467.48,-315.029C465.295,-314.037 462.835,-313.89 460.591,-314.246C442.135,-317.171 423.837,-313.707 405.467,-313.184C397.334,-312.953 389.131,-312.66 381.039,-314.262C379.213,-314.623 377.305,-314.945 375.466,-314.822C358.115,-313.665 341.078,-317.977 323.766,-317.714C318.698,-317.637 313.651,-318.879 308.528,-319.248C293.118,-320.359 277.768,-318.576 262.407,-319.103C251.008,-319.494 239.625,-318.848 228.255,-319.015C219.427,-319.145 210.643,-321.105 201.805,-321.818C180.632,-323.527 159.458,-325.515 138.244,-326.328C126.412,-326.782 114.472,-326.244 102.679,-327.263C88.734,-328.467 74.697,-327.995 60.808,-330.268C44.63,-332.915 28.244,-332.268 11.918,-332.325C7.244,-332.341 2.561,-332.267 -2.101,-332.533C-13.027,-333.156 -18.704,-326.526 -22.64,-317.705C-26.743,-308.508 -26.755,-298.685 -26.346,-288.861C-26.258,-286.769 -25.83,-284.685 -25.834,-282.597C-25.873,-261.609 -23.607,-240.734 -22.841,-219.788C-22.627,-213.961 -22.572,-208.07 -23.167,-202.283C-25.086,-183.606 -23.433,-164.927 -23.587,-146.252C-23.687,-134.16 -23.697,-122.053 -23.222,-109.973C-22.423,-89.686 -23.506,-69.387 -22.175,-49.087C-21.566,-39.799 -20.808,-30.618 -18.882,-21.548C-17.473,-14.915 -11.666,-10.205 -4.848,-10.428C-0.978,-10.555 2.402,-9.704 5.984,-8.409C11.69,-6.345 17.69,-5.102 23.834,-5.323C39,-5.868 54.157,-6.665 69.326,-7.065C81.892,-7.397 94.47,-7.195 107.039,-7.432C123.315,-7.739 139.585,-8.369 155.862,-8.631C170.069,-8.859 184.252,-10.021 198.489,-9.358C204.954,-9.056 211.432,-11.06 217.956,-9.641C218.859,-9.445 219.878,-9.697 220.742,-9.422C226.852,-7.482 233.135,-7.809 239.393,-7.951C256.175,-8.333 273.016,-6.793 289.68,-7.51C305.025,-8.169 320.368,-7.208 335.744,-8.375C345.787,-9.137 356.161,-9.292 366.418,-8.422C374.067,-7.773 381.825,-8.264 389.53,-8.445C399.754,-8.684 409.975,-9.079 420.195,-9.474C436.72,-10.112 453.249,-10.401 469.777,-9.734C472.818,-9.611 474.639,-10.477 475.558,-13.456C476.525,-16.59 477.521,-19.682 477.685,-23C478.538,-40.308 481.943,-57.275 484.607,-74.341C484.787,-75.495 485.298,-76.634 485.281,-77.774C485.089,-90.638 487.294,-103.343 487.721,-116.178C488.147,-128.99 488.951,-141.825 490.401,-154.558C491.776,-166.636 491.436,-178.785 492.807,-190.846C493.781,-199.419 494.036,-208.054 494.216,-216.691C494.29,-220.205 494.531,-223.746 493.84,-227.149C491.672,-237.825 493.992,-248.519 493.51,-259.22C493.138,-267.493 490.897,-275.28 489.679,-283.311C489.017,-287.674 487.591,-291.92 486.879,-296.279C485.81,-302.828 484.086,-308.937 476.787,-313.244C482.072,-314.749 485.703,-316.649 489.826,-317.169C488.414,-314.668 484.056,-314.678 483.982,-311.712C483.927,-309.46 486.113,-307.213 487.062,-304.867C493.83,-288.122 498.107,-270.815 499.003,-252.701C499.212,-248.46 498.108,-244.401 498.304,-240.143C499.218,-220.333 498.622,-200.558 497.305,-180.746C496.037,-161.679 493.911,-142.629 493.405,-123.575C492.939,-106.019 490.832,-88.668 489.462,-71.241C488.405,-57.791 486.66,-44.299 483.105,-31.171C482.58,-29.231 481.728,-27.276 482.438,-25.296C482.999,-25.192 483.363,-25.037 483.435,-25.124C490.537,-33.745 497.628,-42.375 504.695,-51.025C512.032,-60.006 518.522,-69.66 526.565,-78.088C534.326,-86.221 539.522,-96.331 546.758,-104.899C547.84,-106.181 548.129,-108.411 548.2,-110.226C548.704,-123.01 549.465,-135.779 549.673,-148.581C549.829,-158.151 549.726,-167.665 548.624,-177.16C547.488,-186.955 549.474,-196.756 548.484,-206.555C548.338,-208.001 549.148,-209.366 550.948,-209.276C552.482,-209.2 552.631,-207.889 552.702,-206.725C552.802,-205.093 552.825,-203.455 552.824,-201.819C552.822,-192.485 553.341,-183.182 553.826,-173.859C554.697,-157.086 555.123,-140.248 553.245,-123.471C552.959,-120.922 552.747,-118.341 552.807,-115.782C552.981,-108.323 550.52,-102.248 546.459,-95.695C537.518,-81.266 525.615,-69.515 514.898,-56.683C502.977,-42.409 490.662,-28.401 479.748,-13.383C475.651,-7.746 471.459,-6.272 465.443,-5.747C444.31,-3.905 423.131,-3.26 401.943,-2.478C384.961,-1.851 367.966,-2.557 350.967,-0.895C341.812,0 332.38,-1.616 323.048,-1.579C302.059,-1.495 281.068,-1.706 260.081,-1.497C247.227,-1.37 234.432,-2.261 221.675,-3.413C214.887,-4.027 208.144,-4.044 201.39,-3.97C179.736,-3.732 158.085,-3.16 136.431,-2.936C116.15,-2.726 95.855,-3.176 75.586,-2.616C60.655,-2.204 45.727,-1.87 30.793,-1.602C22.505,-1.453 14.5,-2.588 6.661,-5.077C3.286,-6.149 0.061,-6.817 -3.603,-6.292C-13.12,-4.927 -20.809,-10.331 -23.747,-19.71C-26.87,-29.683 -26.078,-40.034 -26.887,-50.227C-27.921,-63.269 -27.776,-76.342 -27.6,-89.41C-27.516,-95.686 -27.496,-101.97 -27.129,-108.231C-26.784,-114.104 -27.925,-119.857 -28.068,-125.683C-28.119,-127.778 -28.68,-129.89 -28.518,-131.956C-27.224,-148.507 -28.769,-165.037 -28.756,-181.575C-28.755,-182.742 -28.823,-183.929 -28.645,-185.073C-26.598,-198.279 -27.91,-211.552 -27.615,-224.789C-27.254,-240.953 -30.001,-256.866 -30.068,-272.915C-30.117,-284.524 -32.25,-296.25 -29.081,-307.786C-26.586,-316.865 -23.676,-325.579 -16.019,-332.033C-13.529,-334.132 -11.294,-335.711 -8.12,-335.729C-5.262,-335.745 -2.535,-336.166 0,-337.544" style="fill-rule:nonzero;"/>
        </g>
        <g transform="matrix(1,0,0,1,1210.36,664.012)">
            <path d="M0,-39.647C0.73,-42.228 1.361,-43.935 1.662,-45.698C1.877,-46.962 2.078,-48.853 0.181,-48.812C-1.27,-48.781 -1.915,-47.134 -1.834,-45.701C-1.734,-43.921 -1.582,-42.097 0,-39.647M-2.054,-14.983C0.095,-18.958 1.885,-22.988 -1.063,-28.358C-3.501,-23.373 -2.538,-19.153 -2.054,-14.983M-4.874,8.144C0.995,4.383 1.734,0.207 -2.249,-7.172C-5.282,-2.218 -5.58,2.737 -4.874,8.144M3.021,-58.945C0.41,-61.238 -1.568,-58.639 -3.693,-58.69C-9.242,-58.825 -13.837,-55.467 -19.153,-54.703C-22.33,-54.246 -23.853,-51.857 -23.723,-48.639C-23.544,-44.209 -23.338,-39.777 -23.002,-35.357C-21.749,-18.861 -20.241,-2.364 -23.158,14.108C-23.57,16.438 -23.231,19.202 -26.11,21.147C-28.326,17.886 -27.365,14.595 -27.194,11.51C-26.743,3.386 -25.391,-4.722 -26.105,-12.868C-27.244,-25.869 -25.641,-38.991 -27.881,-51.918C-28.354,-54.646 -27.402,-56.152 -24.954,-56.398C-19.478,-56.947 -14.772,-59.497 -9.922,-61.703C-5.695,-63.626 -1.198,-62.365 3.154,-62.736C5.98,-62.978 7.429,-59.844 6.876,-56.463C4.771,-43.571 4.09,-30.562 4.351,-17.537C4.472,-11.488 3.587,-5.446 4.517,0.621C4.945,3.409 4.484,6.326 1.385,7.779C-0.473,8.65 -1.088,10.516 -2.168,11.998C-8.339,20.468 -8.327,20.471 -17.558,23.416C-18.491,23.714 -19.495,23.979 -20.077,23.107C-20.651,22.249 -20.206,21.282 -19.415,20.668C-18.683,20.101 -17.878,19.597 -17.042,19.201C-11.296,16.479 -9.268,12.067 -9.985,5.743C-10.616,0.171 -10.24,0.129 -15.542,-1.482C-15.479,-2.527 -14.774,-3.179 -13.981,-3.618C-9.052,-6.344 -7.788,-10.846 -7.758,-16.033C-7.744,-18.351 -6.965,-20.849 -8.316,-22.885C-9.774,-25.082 -12.253,-22.809 -14.154,-23.656C-14.789,-23.94 -15.472,-24.105 -15.688,-25.07C-15.226,-26.73 -13.629,-27.262 -12.112,-27.769C-7.507,-29.31 -5.67,-32.608 -5.523,-37.299C-5.232,-46.586 -5.162,-46.584 -14.55,-47.548C-15.477,-47.643 -16.442,-47.596 -17.323,-47.848C-18.663,-48.232 -20.211,-48.756 -19.918,-50.547C-19.673,-52.044 -18.207,-51.885 -17.089,-51.829C-14.994,-51.723 -12.882,-51.625 -10.818,-51.28C-4.105,-50.16 0.191,-53.081 3.021,-58.945" style="fill-rule:nonzero;"/>
        </g>
        <g transform="matrix(1,0,0,1,1143.41,314.227)">
            <path d="M0,-11.761C5.405,-12.325 9.802,-14.297 11.976,-19.788C13.666,-24.056 13.292,-27.13 10.48,-29.256C7.127,-31.791 2.748,-31.777 -0.387,-29.065C-3.059,-26.752 -5.17,-23.988 -6.327,-20.588C-8.028,-15.59 -5.264,-11.738 0,-11.761M-12.431,-16.453C-11.565,-23.419 -8.984,-29.475 -3.02,-33.648C-0.167,-35.644 2.981,-36.127 6.307,-34.954C7.185,-34.645 8.025,-34.228 8.884,-33.864C19.356,-29.429 20.737,-25.846 15.295,-15.613C13.708,-12.628 13.543,-10.121 14.757,-7.066C18.459,2.251 20.157,12.174 23.2,21.697C23.49,22.608 23.45,23.647 22.378,23.996C21.244,24.366 20.501,23.386 20.353,22.554C18.765,13.581 15.575,5.052 13.205,-3.702C11.231,-10.998 11.225,-11.106 4.798,-7.441C-1.355,-3.932 -8.465,-6.166 -11.495,-12.423C-12.137,-13.749 -12.485,-15.003 -12.431,-16.453" style="fill-rule:nonzero;"/>
        </g>
        <g transform="matrix(1,0,0,1,1173.68,358.263)">
            <path d="M0,30.475C-0.138,34.251 1.424,38.604 0.573,43.045C0.324,44.345 0.596,46.118 -1.46,45.939C-2.808,45.821 -3.016,44.529 -3.315,43.341C-4.806,37.415 -4.584,31.318 -4.96,25.313C-5.672,13.927 -7.357,2.677 -8.596,-8.634C-8.816,-10.642 -12.691,-13.348 -9.315,-14.421C-5.466,-15.643 -5.801,-10.959 -5.103,-8.741C-2.37,-0.052 -1.212,9.011 -0.528,18.037C-0.233,21.926 0.688,25.869 0,30.475" style="fill-rule:nonzero;"/>
        </g>
        <g transform="matrix(1,0,0,1,1236.95,525.337)">
            <path d="M0,-2.797C0.043,-3.717 0.164,-4.643 0.106,-5.557C0.047,-6.492 -0.282,-7.501 -1.222,-7.796C-2.682,-8.255 -3.221,-6.929 -3.653,-5.983C-5.405,-2.148 -5.952,1.949 -5.868,6.127C-5.85,7.01 -5.561,8.009 -4.512,8.319C-3.035,8.755 -2.413,7.674 -2,6.606C-0.831,3.587 0.043,0.488 0,-2.797M3.001,-3.752C3.026,2.799 0.847,7.911 -1.905,12.804C-2.541,13.934 -3.392,15.356 -4.976,15.318C-7.011,15.268 -7.514,13.47 -8.026,11.962C-9.625,7.257 -10.042,2.435 -8.776,-2.405C-7.533,-7.154 -5.27,-11.48 -2.879,-15.741C-1.525,-18.153 -0.125,-18.03 1.157,-15.813C1.838,-14.635 2.588,-13.227 2.539,-11.952C2.423,-8.929 2.731,-5.961 3.001,-3.752" style="fill-rule:nonzero;"/>
        </g>
        <g transform="matrix(1,0,0,1,1149,315.166)">
            <path d="M0,28.808C-3.188,19.867 -3.304,10.617 -3.421,0C0.709,8.395 2.621,23.172 0,28.808" style="fill-rule:nonzero;"/>
        </g>
        <g transform="matrix(-0.555016,-0.83184,-0.83184,0.555016,694.338,421.723)">
            <path d="M-12.772,-23.877C-13.103,-23.02 -13.718,-22.165 -13.721,-21.308C-13.748,-11.918 -14.868,-2.486 -12.772,6.833C-11.443,2.562 -12.291,-1.842 -12.159,-6.167C-11.98,-12.058 -12.533,-17.972 -12.772,-23.877" style="fill-rule:nonzero;"/>
        </g>
        <g transform="matrix(1,0,0,1,739.533,419.29)">
            <path d="M0,-9.995C-5.627,-5.639 -11.461,-1.668 -18.538,0C-12.874,-4.287 -7.221,-8.595 0,-9.995" style="fill-rule:nonzero;"/>
        </g>
        <g transform="matrix(1,0,0,1,696.02,443.856)">
            <path d="M0,-7.899C-3.321,-3.699 -8.338,-2.258 -12.853,0C-9.206,-3.671 -4.828,-6.152 0,-7.899" style="fill-rule:nonzero;"/>
        </g>
        <g transform="matrix(1,0,0,1,1157.62,349.765)">
            <path d="M0,-2.968C-2.489,-0.757 -4.609,-0.374 -6.991,0C-4.773,-2.612 -4.773,-2.612 0,-2.968" style="fill-rule:nonzero;"/>
        </g>
        <g transform="matrix(1,0,0,1,1067.88,422.567)">
            <path d="M0,-7.063C-1.238,-4.036 -2.476,-1.009 -3.891,2.453C2.091,0.037 2.376,-0.538 0,-7.063M-56.13,-8.282C-48.057,-7.118 -40.86,-5.896 -36.079,-13.901C-45.378,-17.314 -50.59,-15.948 -56.13,-8.282M-32.761,-8.724C-32.357,-7.238 -31.559,-6.695 -30.647,-6.592C-23.932,-5.831 -17.206,-5.298 -10.636,-3.441C-7.876,-2.661 -6.285,-4.831 -5.719,-8.731C-5.227,-12.127 -7.394,-12.802 -9.873,-12.908C-14.298,-13.097 -18.734,-13.073 -23.165,-13.072C-27.118,-13.071 -30.034,-10.948 -32.761,-8.724M-92.893,-18.51C-93.459,-18.838 -94,-19.35 -94.62,-19.48C-105.427,-21.757 -114.635,-17.876 -123.28,-11.928C-124.279,-11.24 -124.928,-10.193 -124.685,-8.956C-124.317,-7.089 -122.704,-7.184 -121.377,-7.352C-116.103,-8.017 -110.818,-8.37 -105.506,-8.567C-103.755,-8.632 -101.442,-8.708 -100.482,-10.485C-98.754,-13.684 -95.427,-15.231 -92.893,-18.51M-154.09,-6.094C-147.546,-4.133 -141.195,-5.463 -134.854,-5.621C-133.911,-5.644 -132.864,-6.097 -132.606,-7.01C-131.285,-11.682 -128.206,-15.317 -124.498,-19.619C-138.186,-21.774 -145.673,-13.063 -154.09,-6.094M-204.224,0.946L-204.224,0.732C-205.623,0.732 -207.022,0.724 -208.42,0.734C-216.242,0.784 -216.24,0.786 -215.683,8.458C-215.649,8.921 -215.729,9.392 -215.702,9.857C-215.564,12.206 -214.193,13.363 -211.994,12.869C-207.446,11.848 -202.876,11.678 -198.239,11.521C-194.042,11.379 -192.582,9.438 -192.747,5.967C-192.915,2.447 -194.448,1.111 -198.631,0.957C-200.493,0.889 -202.36,0.946 -204.224,0.946M-58.969,-16.095C-73.948,-20.781 -87.853,-17.73 -93.845,-8.81C-93.461,-8.569 -93.091,-8.147 -92.691,-8.116C-85.083,-7.524 -77.46,-9.12 -69.832,-7.95C-68.896,-7.807 -67.687,-8.722 -66.761,-9.37C-64.123,-11.217 -61.381,-12.968 -58.969,-16.095M-182.118,-17.074C-182.464,-17.375 -182.83,-17.948 -183.129,-17.915C-190.038,-17.154 -196.944,-16.352 -203.842,-15.49C-205.259,-15.313 -206.591,-14.715 -207.139,-13.238C-208.227,-10.309 -210.219,-8.097 -212.435,-5.982C-213.397,-5.064 -214.448,-3.826 -213.581,-2.317C-212.95,-1.218 -211.498,-0.723 -210.524,-1.041C-203.677,-3.275 -194.158,0.888 -190.547,-9.309C-190.215,-10.247 -188.849,-10.833 -187.938,-11.551C-185.828,-13.214 -183.414,-14.554 -182.118,-17.074M-187.248,-4.761C-185.821,-3.919 -185.427,-3.482 -185.046,-3.493C-176.109,-3.74 -166.727,-2.309 -159.878,-10.381C-158.871,-11.568 -157.156,-12.128 -155.882,-13.123C-154.422,-14.264 -152.93,-15.433 -151.747,-16.838C-150.63,-18.167 -150.962,-19.825 -152.854,-19.805C-158.178,-19.747 -163.881,-20.255 -168.611,-17.834C-175.13,-14.498 -181.019,-9.947 -187.248,-4.761M-126.323,9.657C-120.425,10.718 -113.68,8.942 -106.929,9.551C-103.716,9.841 -102.1,8.433 -102.296,5.098C-102.365,3.938 -102.294,2.762 -102.195,1.601C-101.893,-1.937 -103.378,-3.401 -107.027,-3.468C-112.659,-3.571 -118.149,-2.355 -123.732,-2.156C-125.786,-2.083 -126.593,-0.795 -126.811,0.982C-127.007,2.58 -126.645,4.369 -127.246,5.765C-127.988,7.484 -129.67,8.06 -131.075,6.234C-131.759,5.344 -132.229,4.165 -132.429,3.052C-133.006,-0.157 -135.057,-0.966 -137.98,-0.948C-143.111,-0.916 -148.243,-1.11 -153.375,-1.119C-158.646,-1.128 -158.679,-1.089 -160.15,4.277C-160.469,5.442 -160.645,6.678 -162.091,6.723C-163.032,6.753 -163.998,6.154 -164.21,5.182C-165.55,-0.969 -170.315,-1.05 -175.106,-1.005C-177.434,-0.983 -179.764,-0.779 -182.085,-0.571C-188.504,0.004 -188.216,0.876 -186.997,7.152C-186.357,10.448 -183.715,10.053 -181.464,9.876C-173.585,9.256 -165.645,9.255 -157.804,9.332C-147.601,9.433 -137.396,10.173 -126.323,9.657M-65.273,6.811C-67.771,6.447 -67.992,4.269 -68.313,2.593C-69.08,-1.41 -71.551,-2.7 -75.279,-2.741C-79.468,-2.788 -83.655,-3.045 -87.845,-3.184C-95.549,-3.439 -95.548,-3.431 -96.439,4C-96.467,4.23 -96.534,4.457 -96.595,4.682C-97.533,8.151 -95.742,9.381 -92.623,9.552C-91.226,9.629 -89.834,9.805 -88.436,9.857C-69.397,10.56 -50.358,11.243 -31.319,11.946C-26.902,12.109 -22.489,12.388 -18.071,12.498C-14.968,12.574 -12.682,11.735 -12.497,7.894C-12.279,3.365 -12.59,2.389 -16.89,1.56C-21.232,0.722 -25.643,0.165 -30.048,-0.26C-36.924,-0.922 -36.922,-0.828 -38.38,6.197C-38.44,6.486 -39.063,6.659 -39.555,6.968C-40.061,6.64 -41.053,6.339 -41.113,5.908C-42.112,-1.26 -46.787,-2.151 -52.809,-1.38C-55.062,-1.091 -57.429,-1.718 -59.746,-1.905C-61.933,-2.082 -63.33,-1.315 -63.513,1.107C-63.665,3.126 -63.221,5.375 -65.273,6.811M-29.507,17.552C-52.817,16.933 -76.097,15.527 -99.427,15.266C-114.578,15.097 -129.709,15.333 -144.843,15.371C-155.278,15.397 -165.75,14.056 -176.259,14.847C-187.635,15.703 -199.032,16.285 -210.405,17.182C-217.112,17.711 -218.278,17.103 -220.301,10.43C-220.834,8.67 -220.91,6.8 -222.987,5.837C-226.803,4.068 -225.708,1.388 -223.781,-0.997C-219.233,-6.628 -214.357,-11.971 -208.67,-16.497C-206.627,-18.123 -204.196,-19.224 -201.69,-19.626C-191.348,-21.285 -180.988,-23.746 -170.597,-23.946C-159.675,-24.157 -148.766,-25.208 -137.91,-25.088C-120.955,-24.899 -103.984,-25.143 -87.009,-24.426C-76.551,-23.985 -66.342,-21.96 -55.942,-21.572C-45.432,-21.18 -35.047,-19.729 -24.679,-17.988C-20.342,-17.259 -15.868,-17.174 -11.452,-17.128C-5.94,-17.069 -1.058,-14.83 4.014,-13.204C5.157,-12.838 6.128,-12.255 6.758,-11.184C9.014,-7.352 7.931,1.435 4.573,4.52C0.476,8.285 -3.976,11.66 -7.622,15.921C-8.734,17.221 -10.335,17.73 -12.056,17.615C-15.088,17.412 -18.083,17.54 -21.12,17.857C-23.875,18.145 -26.708,17.684 -29.507,17.552" style="fill-rule:nonzero;"/>
        </g>
        <g transform="matrix(1,0,0,1,811.15,426.544)">
            <path d="M0,-17.696C-3.832,-17.606 -5.551,-16.391 -5.213,-13.851C-4.957,-11.926 -4.056,-10.308 -1.911,-10.017C-0.333,-9.803 3.57,-13.769 3.491,-15.536C3.389,-17.805 1.698,-17.831 0,-17.696M-6.283,-7.231C-5.865,-7.988 -6.288,-8.622 -6.69,-9.148C-8.019,-10.886 -8.319,-14.139 -11.305,-13.639C-15.098,-13.005 -19.159,-12.595 -21.975,-9.382C-22.221,-9.102 -22.194,-8.503 -22.154,-8.064C-21.95,-5.813 -18.513,-1.544 -16.771,-1.325C-14.033,-0.981 -6.797,-5.052 -6.283,-7.231M-47.631,-6.185C-49.788,-6.126 -51.934,-7.438 -53.752,-5.653C-54.997,-4.431 -55.515,2.84 -54.444,4.483C-52.912,6.835 -50.527,6.392 -48.185,6.346C-41.031,6.208 -34.451,3.387 -27.551,2.071C-22.926,1.189 -22.757,0.671 -23.737,-4.05C-24.68,-8.591 -25.333,-9.225 -29.858,-8.091C-35.772,-6.61 -41.829,-6.96 -47.631,-6.185M-7.907,-27.722C-3.509,-28.995 0.393,-27.653 3.931,-25.424C9.212,-22.097 9.84,-14.926 5.199,-9.629C-0.73,-2.86 -8.13,1.638 -16.774,4.409C-25.855,7.32 -35.041,9.582 -44.462,10.934C-46.056,11.163 -47.717,11.299 -49.307,11.122C-57.15,10.252 -58.799,7.937 -57.429,0.122C-57.068,-1.938 -56.462,-4.062 -56.655,-6.091C-57.17,-11.485 -54.49,-14.983 -50.325,-17.617C-43.154,-22.152 -35.605,-25.424 -26.732,-23.531C-31.392,-21.634 -36.358,-20.697 -41.03,-18.837C-43.425,-17.883 -45.623,-16.641 -47.85,-15.435C-49.243,-14.68 -50.938,-13.632 -50.615,-11.767C-50.251,-9.666 -48.185,-9.989 -46.628,-9.848C-41.703,-9.404 -36.878,-10.373 -32.063,-11.121C-22.153,-12.661 -12.87,-16.517 -3.298,-19.297C-1.304,-19.876 2.174,-20.343 1.949,-23.026C1.686,-26.178 -1.794,-25.718 -4.215,-26.145C-5.507,-26.373 -7.113,-25.822 -7.907,-27.722" style="fill-rule:nonzero;"/>
        </g>
        <g transform="matrix(1,0,0,1,1138.98,484.488)">
            <path d="M0,10.122C2.502,10.102 4.584,7.52 4.457,4.748C4.38,3.079 3.933,1.452 2.04,1.073C0.339,0.733 -2.369,4.784 -2.199,7.357C-2.103,8.823 -1.542,10.033 0,10.122M-0.668,14.753C-6.054,14.635 -8.907,10.562 -7.562,5.18C-6.099,-0.677 -0.102,-4.758 5.079,-1.841C7.079,-0.716 8.351,0.464 8.852,2.739C10.12,8.491 5.133,14.88 -0.668,14.753" style="fill-rule:nonzero;"/>
        </g>
        <g transform="matrix(1,0,0,1,1137.24,765.327)">
            <path d="M0,-6.22C-1.53,-6.377 -1.99,-5.323 -2.243,-4.139C-2.449,-3.177 -2.395,-2.164 -1.105,-2.094C0.229,-2.022 1.082,-2.834 1.356,-4.097C1.587,-5.159 0.948,-5.82 0,-6.22M-3.584,4.114C-6.221,4.311 -8.046,2.885 -9.066,0.702C-10.143,-1.605 -9.286,-3.826 -7.673,-5.665C-4.693,-9.062 -0.113,-8.41 3.657,-9.747C5.866,-10.531 8.088,-4.838 6.54,-1.98C4.403,1.968 0.921,3.944 -3.584,4.114" style="fill-rule:nonzero;"/>
        </g>
        <g transform="matrix(1,0,0,1,663.388,480.248)">
            <path d="M0,-6.942C-0.076,-6.121 -0.013,-5.423 -0.22,-4.817C-0.877,-2.898 -2.457,-0.83 0.24,0.653C2.988,2.163 5.126,0.623 7.051,-1.23C9.031,-3.137 9.034,-5.182 7.708,-7.535C6.77,-9.202 4.468,-8.97 2.844,-11.007C7.123,-11.883 10.068,-11.637 11.824,-8.034C13.472,-4.653 11.694,-2.2 9.391,-0.04C8.219,1.06 6.864,2.015 5.465,2.814C1.744,4.941 -2.285,4.551 -3.953,2.034C-5.737,-0.659 -4.495,-3.58 0,-6.942" style="fill-rule:nonzero;"/>
        </g>
        <g transform="matrix(1,0,0,1,672.282,756.891)">
            <path d="M0,1.04C-0.039,-1.042 -1.193,-2.334 -3.311,-2.549C-4.905,-2.712 -6.021,-1.778 -6.079,-0.172C-6.154,1.92 -5.172,3.434 -2.89,3.502C-1.38,3.547 -0.205,2.878 0,1.04M2.053,0.618C1.657,4.194 -0.698,6.221 -3.972,5.806C-7.326,5.381 -9.317,2.696 -8.746,-0.632C-8.263,-3.446 -5.932,-5.181 -3.274,-4.707C0.08,-4.108 2.328,-1.861 2.053,0.618" style="fill-rule:nonzero;"/>
        </g>
        <g transform="matrix(0.383156,0.923684,0.923684,-0.383156,1197.33,517.311)">
            <path d="M8.111,-4.781C4.35,0.582 5.62,5.521 6.51,10.393C6.635,11.083 7.354,11.454 8.111,11.429C8.952,11.401 9.575,10.635 9.439,10.103C8.264,5.524 10.429,0.606 8.111,-4.781" style="fill-rule:nonzero;"/>
        </g>
        <g transform="matrix(1,0,0,1,1210.2,541.468)">
            <path d="M0,-5.243C-3.154,0 -7.344,-0.511 -12.153,-0.849C-8.607,-4.426 -4.414,-3.907 0,-5.243" style="fill-rule:nonzero;"/>
        </g>
        <g transform="matrix(1,0,0,1,1199.47,505.495)">
            <path d="M0,3.921C2.713,2.078 5.255,-0.381 9.673,1.482C6.56,4.302 3.088,3.423 0,3.921" style="fill-rule:nonzero;"/>
        </g>
        <g transform="matrix(1,0,0,1,1205.99,361.407)">
            <path d="M0,211.742C0.418,211.591 1.304,211.342 2.127,210.959C6.54,208.904 10.961,206.863 15.327,204.714C16.737,204.02 18.571,203.197 17.633,201.117C16.634,198.901 14.659,199.222 12.819,199.941C11.521,200.448 10.348,201.296 9.032,201.73C5.95,202.747 2.856,203.801 -0.314,204.445C-1.841,204.755 -3.882,204.236 -4.273,202.402C-4.725,200.284 -2.727,199.793 -1.173,199.378C2.867,198.3 6.925,197.286 10.995,196.328C13.441,195.753 14.677,194.661 13.802,191.91C12.805,188.778 10.808,188.588 8.413,189.945C3.71,192.611 -1.075,194.538 -6.69,194.345C-9.614,194.245 -9.809,196.696 -8.898,198.918C-7.579,202.133 -6.086,205.277 -4.622,208.431C-3.807,210.187 -2.689,211.637 0,211.742M-62.268,70.81C-59.657,71.798 -56.447,70.402 -53.178,70.497C-45.208,70.73 -38.185,67.252 -31.361,63.861C-28.323,62.352 -24.807,59.669 -25.337,55.271C-25.674,52.474 -29.631,50.871 -35.044,52.142C-40.639,53.456 -46.172,52.78 -51.715,52.914C-55.139,52.997 -58.867,52.962 -61.888,51.031C-66.231,48.253 -65.997,48.205 -69.318,51.396C-71.845,53.823 -72.716,56.91 -73.598,60.039C-75.705,67.518 -75.587,70.848 -65.727,70.586C-64.798,70.561 -63.865,70.701 -62.268,70.81M-13.187,166.852C-13.937,174.386 -11.558,181.125 -11.024,188.066C-10.771,191.355 -8.308,191.533 -5.828,190.866C-2.002,189.836 1.734,188.464 5.569,187.478C11.216,186.026 11.39,186.075 9.896,180.614C7.586,172.162 7.666,163.655 8.619,155.05C9.238,149.467 10.105,144.008 11.985,138.652C13.994,132.927 13.116,132.17 6.905,133.484C4.403,134.014 2.007,135.308 -0.498,135.514C-5.888,135.958 -8.013,139.399 -9.481,143.915C-11.957,151.532 -13.143,159.334 -13.187,166.852M-40.168,105.594C-38.789,101.777 -34.838,101.408 -31.975,99.725C-17.522,91.232 -4.261,80.974 9.772,71.868C14.434,68.843 19.697,66.707 23.292,62.126C26.371,58.202 26.763,56.522 24.838,52.668C23.132,49.251 19.857,47.668 16.703,48.493C5.927,51.311 -5.075,49.78 -15.924,50.834C-18.779,51.111 -20.279,51.872 -20.356,54.843C-20.588,63.808 -27.149,67.968 -34.011,70.712C-44.008,74.71 -54.696,76.173 -65.547,75.479C-67.868,75.33 -70.239,75.137 -72.465,74.521C-77.15,73.225 -78.487,71.335 -78.146,66.367C-77.689,59.703 -75.393,53.653 -71.258,48.373C-68.159,44.417 -68.308,43.808 -73.074,42.481C-86.794,38.662 -100.625,35.472 -114.8,33.72C-124.984,32.461 -135.152,31.387 -145.415,31.157C-151.716,31.017 -158.047,30.924 -164.3,30.231C-181.008,28.378 -197.802,29.05 -214.54,28.141C-229.671,27.32 -244.833,27.941 -259.982,27.668C-270.888,27.471 -281.832,28.628 -292.799,28.484C-304.643,28.328 -316.495,28.68 -328.343,28.872C-339.758,29.057 -351.172,29.395 -362.588,29.525C-373.321,29.647 -384.06,29.761 -394.789,29.546C-402.49,29.392 -410.14,29.909 -417.762,30.705C-421.06,31.049 -424.258,30.449 -427.528,30.681C-435.262,31.23 -441.676,35.099 -448.301,38.456C-454.484,41.588 -460.592,44.868 -466.733,48.082C-465.285,44.89 -462.26,42.911 -459.504,41.801C-452.759,39.084 -446.863,34.914 -440.392,31.773C-432.664,28.02 -424.24,27.508 -416.008,26.067C-406.763,24.449 -397.491,24.274 -388.094,24.672C-380.672,24.987 -373.163,24.455 -365.711,24.133C-354.283,23.639 -342.882,24.465 -331.451,24.115C-318.651,23.723 -305.86,22.728 -293.028,23.141C-277.663,23.635 -262.294,21.822 -246.987,22.254C-234.898,22.596 -222.64,23.972 -210.687,23.267C-195.174,22.352 -179.993,25.633 -164.588,24.745C-159.754,24.466 -154.93,25.908 -149.974,25.891C-135.477,25.842 -121.146,28.003 -106.764,29.609C-95.312,30.888 -84.279,33.665 -73.281,36.826C-71.486,37.341 -69.651,37.729 -67.818,38.099C-65.229,38.621 -63.792,38.064 -64.281,34.883C-66.067,23.269 -65.039,11.6 -64.697,-0.051C-64.636,-2.132 -64.325,-4.214 -63.036,-6.548C-60.725,-4.195 -61.076,-1.423 -61.146,1.131C-61.462,12.586 -61.387,24.024 -60.139,35.43C-59.987,36.818 -59.983,38.234 -59.701,39.593C-58.139,47.12 -57.992,47.003 -50.32,48.019C-45.147,48.705 -40.163,49.182 -35.238,46.855C-34.061,46.299 -32.397,46.143 -31.141,46.483C-22.27,48.89 -13.492,46.178 -4.674,46.139C1.623,46.111 7.918,45.573 14.215,45.273C17.311,45.125 20.227,45.944 23.124,46.918C25.748,47.799 27.658,49.501 28.431,52.1C29.873,56.951 31.321,61.605 31.214,67.008C30.971,79.306 32.041,91.63 32.581,103.944C32.602,104.411 32.727,104.881 32.692,105.341C32.037,113.775 33.84,120.766 40.489,127.157C46.217,132.662 47.196,141.378 48.398,149.106C50.846,164.839 47.884,179.798 39.678,193.547C36.86,198.269 33.104,202.048 27.391,203.139C25.483,203.502 23.876,204.318 22.442,205.584C16.378,210.937 8.771,213.398 1.539,216.485C-2.689,218.29 -4.365,216.92 -6.706,212.873C-15.051,198.451 -17.268,182.517 -17.031,166.435C-16.853,154.287 -13.63,142.413 -5.911,132.364C-4.578,130.628 -4.134,129.49 -1.385,131.694C1.598,134.087 5.303,130.612 8.933,130.156C7.843,127.208 4.713,128.579 3.629,126.44C3.527,124.729 5.033,124.896 6.022,124.801C10.898,124.335 15.783,123.913 20.674,123.644C24.084,123.457 25.484,125.259 23.677,127.707C14.841,139.672 13.579,153.623 13.558,167.652C13.543,177.525 16.972,186.893 21.068,195.835C22.839,199.701 24.775,199.972 28.287,197.559C32.428,194.714 35.457,190.803 37.405,186.267C42.765,173.787 45.029,160.758 42.51,147.293C41.492,141.854 39.483,136.575 37.62,131.331C36.671,128.661 34.654,126.742 31.932,125.453C27.136,123.183 22.485,120.606 17.43,117.979C19.299,115.503 21.251,116.256 23.27,116.532C27.251,117.076 27.786,116.599 27.575,112.586C27.232,106.063 26.785,99.542 26.23,93.034C25.614,85.816 27.191,78.593 25.867,71.357C24.91,66.126 24.21,65.565 20.025,68.364C5.941,77.783 -8.047,87.35 -22.236,96.609C-27.834,100.261 -33.49,104.003 -40.168,105.594" style="fill-rule:nonzero;"/>
        </g>
        <g transform="matrix(1,0,0,1,1230.61,524.874)">
            <path d="M0,0.357C-0.54,3.529 -0.433,6.905 0.946,9.812C1.141,10.224 1.406,10.662 1.846,10.782C2.47,10.953 3.042,10.404 3.438,9.892C6.072,6.485 7.731,2.333 8.172,-1.951C8.355,-3.728 8.021,-10.596 4.776,-9.595C3.379,-9.165 2.261,-6.428 1.704,-5.221C0.887,-3.451 0.327,-1.564 0,0.357" style="fill-rule:nonzero;"/>
        </g>
        <g transform="matrix(1,0,0,1,660.829,473.449)">
            <path d="M0,4.465C-0.505,5.716 -0.165,7.262 0.818,8.186C1.955,9.256 3.726,9.408 5.225,8.966C6.723,8.525 8.015,7.583 9.274,6.659C10.235,5.953 11.216,5.227 11.885,4.241C12.459,3.395 12.777,2.393 12.898,1.378C13.038,0.211 12.911,-1.026 12.3,-2.031C11.69,-3.035 10.529,-3.751 9.362,-3.613C8.291,-3.486 6.191,-4.943 5.403,-4.207C4.113,-3.002 3.894,-1.298 2.559,-0.143C1.518,0.759 0.557,3.083 0,4.465" style="fill-rule:nonzero;"/>
        </g>
        <g transform="matrix(1,0,0,1,665.949,755.631)">
            <path d="M0,4.199C0.111,4.576 0.252,4.954 0.505,5.254C0.837,5.649 1.333,5.874 1.834,5.995C3.471,6.391 5.317,5.711 6.306,4.348C6.601,3.94 6.823,3.484 7.001,3.013C7.193,2.508 7.336,1.969 7.285,1.431C7.209,0.634 6.714,-0.064 6.157,-0.64C5.793,-1.016 5.388,-1.364 4.914,-1.589C4.369,-1.847 3.761,-1.931 3.163,-2.011C2.484,-2.103 1.775,-2.192 1.126,-1.972C-0.932,-1.273 -0.462,2.631 0,4.199" style="fill-rule:nonzero;"/>
        </g>
        <g transform="matrix(1,0,0,1,1134.53,757.079)">
            <path d="M0,7.514C1.219,7.862 2.584,7.532 3.584,6.754C4.585,5.976 5.229,4.788 5.456,3.541C5.571,2.911 5.58,2.236 5.306,1.657C5.012,1.037 4.422,0.598 3.783,0.351C1.965,-0.348 -0.739,0.519 -1.177,2.595C-1.332,3.332 -1.178,4.13 -1.263,4.879C-1.309,5.284 -1.718,6.198 -1.607,6.556C-1.452,7.054 -0.507,7.369 0,7.514" style="fill-rule:nonzero;"/>
        </g>
        <g transform="matrix(1,0,0,1,1136.29,486.392)">
            <path d="M0,8.436C0.664,9.405 1.816,10.227 2.948,9.914C3.85,9.665 4.417,8.796 5.173,8.247C5.682,7.878 6.284,7.649 6.774,7.255C8.065,6.215 8.247,4.348 9.013,2.877C9.19,2.538 9.404,2.206 9.469,1.829C9.547,1.386 9.406,0.93 9.19,0.536C8.232,-1.207 5.99,-1.791 4.001,-1.75C3.443,-1.739 2.871,-1.688 2.37,-1.442C1.201,-0.866 -0.234,1.599 -0.655,2.797C-1.303,4.641 -1.116,6.808 0,8.436" style="fill-rule:nonzero;"/>
        </g>
    </g>
</svg>
